<svg xmlns="http://www.w3.org/2000/svg" xmlns:xlink="http://www.w3.org/1999/xlink" height="247.0" viewBox="0.0 0.0 589.5 247.0" width="590.0">
<g class="graph" id="graph0" transform="scale(1.0 1.0) rotate(0) translate(4 243)">
<title>G</title>
<polygon fill="#ffffff" points="-4,4 -4,-243 585.5,-243 585.5,4 -4,4" stroke="transparent" />
<g class="cluster" id="clust8">
<title>cluster_legend</title>
</g>

<g class="node" id="node1">
<title>node2</title>
<text fill="#444443" font-family="Helvetica,sans-Serif" font-size="12.00" text-anchor="start" x="62" y="-104.4">redshift@-0.00</text>
</g>

<g class="node" id="node2">
<title>node5</title>
<text fill="#444443" font-family="Helvetica,sans-Serif" font-size="12.00" text-anchor="start" x="178" y="-104.4">redshift@0.00</text>
</g>


<g class="node" id="node8">
<title>leaf3</title>
<polygon fill="none" points="35,-59.5 0,-59.5 0,-24.5 35,-24.5 35,-59.5" stroke="#444443" stroke-width="0" />
<svg height="27px" preserveAspectRatio="xMinYMin meet" version="1.1" viewBox="0 0 36.165937 35.748664" width="27px" x="4.5" y="-55">
 <defs>
  <style type="text/css">
*{stroke-linecap:butt;stroke-linejoin:round;}
  </style>
 </defs>
 <g id="figure_1">
  <g id="patch_1">
   <path d="M 0 35.748664  L 36.165937 35.748664  L 36.165937 0  L 0 0  z " style="fill:#ffffff;" />
  </g>
  <g id="axes_1">
   <g id="patch_2">
    <path d="M 26.236969 8.154  C 26.236969 7.083227 26.02605 6.022865 25.616282 5.033599  C 25.206515 4.044334 24.605869 3.145402 23.848717 2.388251  C 23.091566 1.6311 22.192635 1.030454 21.203369 0.620686  C 20.214104 0.210919 19.153742 0 18.082969 0  C 17.012195 0 15.951834 0.210919 14.962568 0.620686  C 13.973302 1.030454 13.074371 1.6311 12.31722 2.388251  C 11.560069 3.145402 10.959422 4.044334 10.549655 5.033599  C 10.139888 6.022865 9.928969 7.083227 9.928969 8.154  C 9.928969 9.224773 10.139888 10.285135 10.549655 11.274401  C 10.959422 12.263666 11.560069 13.162598 12.31722 13.919749  C 13.074371 14.6769 13.973302 15.277546 14.962568 15.687314  C 15.951834 16.097081 17.012195 16.308 18.082969 16.308  C 19.153742 16.308 20.214104 16.097081 21.203369 15.687314  C 22.192635 15.277546 23.091566 14.6769 23.848717 13.919749  C 24.605869 13.162598 25.206515 12.263666 25.616282 11.274401  C 26.02605 10.285135 26.236969 9.224773 26.236969 8.154  M 18.082969 8.154  M 26.236969 8.154  z " style="fill:#fefebb;stroke:#444443;stroke-linejoin:miter;stroke-width:0.5;" />
   </g>
   <g id="text_1">
    
    <defs>
     <path d="M 54.890625 33.015625  L 54.890625 0  L 45.90625 0  L 45.90625 32.71875  Q 45.90625 40.484375 42.875 44.328125  Q 39.84375 48.1875 33.796875 48.1875  Q 26.515625 48.1875 22.3125 43.546875  Q 18.109375 38.921875 18.109375 30.90625  L 18.109375 0  L 9.078125 0  L 9.078125 54.6875  L 18.109375 54.6875  L 18.109375 46.1875  Q 21.34375 51.125 25.703125 53.5625  Q 30.078125 56 35.796875 56  Q 45.21875 56 50.046875 50.171875  Q 54.890625 44.34375 54.890625 33.015625  z " id="DejaVuSans-110" />
     <path d="M 10.59375 45.40625  L 73.1875 45.40625  L 73.1875 37.203125  L 10.59375 37.203125  z M 10.59375 25.484375  L 73.1875 25.484375  L 73.1875 17.1875  L 10.59375 17.1875  z " id="DejaVuSans-61" />
     <path d="M 33.015625 40.375  Q 26.375 40.375 22.484375 35.828125  Q 18.609375 31.296875 18.609375 23.390625  Q 18.609375 15.53125 22.484375 10.953125  Q 26.375 6.390625 33.015625 6.390625  Q 39.65625 6.390625 43.53125 10.953125  Q 47.40625 15.53125 47.40625 23.390625  Q 47.40625 31.296875 43.53125 35.828125  Q 39.65625 40.375 33.015625 40.375  z M 52.59375 71.296875  L 52.59375 62.3125  Q 48.875 64.0625 45.09375 64.984375  Q 41.3125 65.921875 37.59375 65.921875  Q 27.828125 65.921875 22.671875 59.328125  Q 17.53125 52.734375 16.796875 39.40625  Q 19.671875 43.65625 24.015625 45.921875  Q 28.375 48.1875 33.59375 48.1875  Q 44.578125 48.1875 50.953125 41.515625  Q 57.328125 34.859375 57.328125 23.390625  Q 57.328125 12.15625 50.6875 5.359375  Q 44.046875 -1.421875 33.015625 -1.421875  Q 20.359375 -1.421875 13.671875 8.265625  Q 6.984375 17.96875 6.984375 36.375  Q 6.984375 53.65625 15.1875 63.9375  Q 23.390625 74.21875 37.203125 74.21875  Q 40.921875 74.21875 44.703125 73.484375  Q 48.484375 72.75 52.59375 71.296875  z " id="DejaVuSans-54" />
    </defs>
    <g style="fill:#444443;" transform="translate(8.597109 23.798914)scale(0.09 -0.09)">
     <use xlink:href="#DejaVuSans-110" />
     <use x="63.378906" xlink:href="#DejaVuSans-61" />
     <use x="147.167969" xlink:href="#DejaVuSans-54" />
    </g>
    
    <defs>
     <path d="M 59.515625 10.40625  L 59.515625 29.984375  L 43.40625 29.984375  L 43.40625 38.09375  L 69.28125 38.09375  L 69.28125 6.78125  Q 63.578125 2.734375 56.6875 0.65625  Q 49.8125 -1.421875 42 -1.421875  Q 24.90625 -1.421875 15.25 8.5625  Q 5.609375 18.5625 5.609375 36.375  Q 5.609375 54.25 15.25 64.234375  Q 24.90625 74.21875 42 74.21875  Q 49.125 74.21875 55.546875 72.453125  Q 61.96875 70.703125 67.390625 67.28125  L 67.390625 56.78125  Q 61.921875 61.421875 55.765625 63.765625  Q 49.609375 66.109375 42.828125 66.109375  Q 29.4375 66.109375 22.71875 58.640625  Q 16.015625 51.171875 16.015625 36.375  Q 16.015625 21.625 22.71875 14.15625  Q 29.4375 6.6875 42.828125 6.6875  Q 48.046875 6.6875 52.140625 7.59375  Q 56.25 8.5 59.515625 10.40625  z " id="DejaVuSans-71" />
     <path d="M 34.1875 63.1875  L 20.796875 26.90625  L 47.609375 26.90625  z M 28.609375 72.90625  L 39.796875 72.90625  L 67.578125 0  L 57.328125 0  L 50.6875 18.703125  L 17.828125 18.703125  L 11.1875 0  L 0.78125 0  z " id="DejaVuSans-65" />
     <path d="M 9.8125 72.90625  L 19.671875 72.90625  L 19.671875 8.296875  L 55.171875 8.296875  L 55.171875 0  L 9.8125 0  z " id="DejaVuSans-76" />
     <path d="M 6.296875 72.90625  L 16.890625 72.90625  L 35.015625 45.796875  L 53.21875 72.90625  L 63.8125 72.90625  L 40.375 37.890625  L 65.375 0  L 54.78125 0  L 34.28125 31  L 13.625 0  L 2.984375 0  L 29 38.921875  z " id="DejaVuSans-88" />
     <path d="M -0.203125 72.90625  L 10.40625 72.90625  L 30.609375 42.921875  L 50.6875 72.90625  L 61.28125 72.90625  L 35.5 34.71875  L 35.5 0  L 25.59375 0  L 25.59375 34.71875  z " id="DejaVuSans-89" />
    </defs>
    <g style="fill:#444443;" transform="translate(0 33.876945)scale(0.09 -0.09)">
     <use xlink:href="#DejaVuSans-71" />
     <use x="77.490234" xlink:href="#DejaVuSans-65" />
     <use x="145.898438" xlink:href="#DejaVuSans-76" />
     <use x="203.861328" xlink:href="#DejaVuSans-65" />
     <use x="272.269531" xlink:href="#DejaVuSans-88" />
     <use x="340.775391" xlink:href="#DejaVuSans-89" />
    </g>
   </g>
  </g>
 </g>
</svg></g>

<g class="edge" id="edge1">
<title>node2-&gt;leaf3</title>
<path d="M93.1387,-100.9801C80.5337,-91.1513 56.2631,-72.226 38.6048,-58.4567" fill="none" stroke="#444443" stroke-width=".3" />
<polygon fill="#444443" points="39.182,-57.1315 35.1668,-55.7759 37.4603,-59.3396 39.182,-57.1315" stroke="#444443" stroke-width=".3" />
</g>

<g class="node" id="node9">
<title>leaf4</title>
<polygon fill="none" points="116,-83.5 49,-83.5 49,-.5 116,-.5 116,-83.5" stroke="#444443" stroke-width="0" />
<svg height="75px" preserveAspectRatio="xMinYMin meet" version="1.1" viewBox="0 0 78.562437 100.511727" width="59px" x="53.5" y="-79">
 <defs>
  <style type="text/css">
*{stroke-linecap:butt;stroke-linejoin:round;}
  </style>
 </defs>
 <g id="figure_1">
  <g id="patch_1">
   <path d="M 0 100.511727  L 78.562437 100.511727  L 78.562437 0  L 0 0  z " style="fill:#ffffff;" />
  </g>
  <g id="axes_1">
   <g id="patch_2">
    <path d="M 78.562437 39.322583  C 78.562437 39.210928 78.561961 39.099274 78.561008 38.987622  C 78.560056 38.875971 78.558627 38.764325 78.556722 38.652686  L 39.302437 39.322583  L 78.562437 39.322583  z " style="fill:#fefebb;stroke:#444443;stroke-linejoin:miter;stroke-width:0.5;" />
   </g>
   <g id="patch_3">
    <path d="M 78.556722 38.652686  C 78.556722 38.652686 78.556722 38.652686 78.556722 38.652686  L 39.302437 39.322583  L 78.556722 38.652686  z " style="fill:#d9e6f5;stroke:#444443;stroke-linejoin:miter;stroke-width:0.5;" />
   </g>
   <g id="patch_4">
    <path d="M 78.556722 38.652686  C 78.468992 33.511949 77.372265 28.438159 75.328969 23.720128  C 73.285673 19.002097 70.335327 14.731077 66.645873 11.150183  C 62.956418 7.56929 58.599212 4.747781 53.822277 2.846264  C 49.045342 0.944748 43.941069 0 38.800004 0.065799  C 33.65894 0.131597 28.580518 1.206669 23.853813 3.22982  C 19.127108 5.25297 14.843541 8.185068 11.24694 11.859213  C 7.65034 15.533358 4.81027 19.878488 2.888392 24.647268  C 0.966514 29.416048 0 34.516244 0.043866 39.657543  C 0.087732 44.798841 1.14113 49.881803 3.144098 54.617096  C 5.147066 59.352388 8.060864 63.648425 11.719632 67.260666  C 15.378401 70.872908 19.711375 73.731489 24.471913 75.673693  C 29.232451 77.615897 34.328478 78.604159 39.469916 78.582226  C 44.611355 78.560293 49.698765 77.528589 54.442559 75.54584  C 59.186353 73.563091 63.494781 70.667646 67.122598 67.024321  C 70.750415 63.380996 73.627454 59.060255 75.589949 54.308046  C 77.552444 49.555838 78.562437 44.464073 78.562437 39.322587  L 39.302437 39.322583  L 78.556722 38.652686  z " style="fill:#a1dab4;stroke:#444443;stroke-linejoin:miter;stroke-width:0.5;" />
   </g>
   <g id="text_1">
    
    <defs>
     <path d="M 54.890625 33.015625  L 54.890625 0  L 45.90625 0  L 45.90625 32.71875  Q 45.90625 40.484375 42.875 44.328125  Q 39.84375 48.1875 33.796875 48.1875  Q 26.515625 48.1875 22.3125 43.546875  Q 18.109375 38.921875 18.109375 30.90625  L 18.109375 0  L 9.078125 0  L 9.078125 54.6875  L 18.109375 54.6875  L 18.109375 46.1875  Q 21.34375 51.125 25.703125 53.5625  Q 30.078125 56 35.796875 56  Q 45.21875 56 50.046875 50.171875  Q 54.890625 44.34375 54.890625 33.015625  z " id="DejaVuSans-110" />
     <path d="M 10.59375 45.40625  L 73.1875 45.40625  L 73.1875 37.203125  L 10.59375 37.203125  z M 10.59375 25.484375  L 73.1875 25.484375  L 73.1875 17.1875  L 10.59375 17.1875  z " id="DejaVuSans-61" />
     <path d="M 12.40625 8.296875  L 28.515625 8.296875  L 28.515625 63.921875  L 10.984375 60.40625  L 10.984375 69.390625  L 28.421875 72.90625  L 38.28125 72.90625  L 38.28125 8.296875  L 54.390625 8.296875  L 54.390625 0  L 12.40625 0  z " id="DejaVuSans-49" />
     <path d="M 40.578125 39.3125  Q 47.65625 37.796875 51.625 33  Q 55.609375 28.21875 55.609375 21.1875  Q 55.609375 10.40625 48.1875 4.484375  Q 40.765625 -1.421875 27.09375 -1.421875  Q 22.515625 -1.421875 17.65625 -0.515625  Q 12.796875 0.390625 7.625 2.203125  L 7.625 11.71875  Q 11.71875 9.328125 16.59375 8.109375  Q 21.484375 6.890625 26.8125 6.890625  Q 36.078125 6.890625 40.9375 10.546875  Q 45.796875 14.203125 45.796875 21.1875  Q 45.796875 27.640625 41.28125 31.265625  Q 36.765625 34.90625 28.71875 34.90625  L 20.21875 34.90625  L 20.21875 43.015625  L 29.109375 43.015625  Q 36.375 43.015625 40.234375 45.921875  Q 44.09375 48.828125 44.09375 54.296875  Q 44.09375 59.90625 40.109375 62.90625  Q 36.140625 65.921875 28.71875 65.921875  Q 24.65625 65.921875 20.015625 65.03125  Q 15.375 64.15625 9.8125 62.3125  L 9.8125 71.09375  Q 15.4375 72.65625 20.34375 73.4375  Q 25.25 74.21875 29.59375 74.21875  Q 40.828125 74.21875 47.359375 69.109375  Q 53.90625 64.015625 53.90625 55.328125  Q 53.90625 49.265625 50.4375 45.09375  Q 46.96875 40.921875 40.578125 39.3125  z " id="DejaVuSans-51" />
     <path d="M 8.203125 72.90625  L 55.078125 72.90625  L 55.078125 68.703125  L 28.609375 0  L 18.3125 0  L 43.21875 64.59375  L 8.203125 64.59375  z " id="DejaVuSans-55" />
     <path d="M 10.796875 72.90625  L 49.515625 72.90625  L 49.515625 64.59375  L 19.828125 64.59375  L 19.828125 46.734375  Q 21.96875 47.46875 24.109375 47.828125  Q 26.265625 48.1875 28.421875 48.1875  Q 40.625 48.1875 47.75 41.5  Q 54.890625 34.8125 54.890625 23.390625  Q 54.890625 11.625 47.5625 5.09375  Q 40.234375 -1.421875 26.90625 -1.421875  Q 22.3125 -1.421875 17.546875 -0.640625  Q 12.796875 0.140625 7.71875 1.703125  L 7.71875 11.625  Q 12.109375 9.234375 16.796875 8.0625  Q 21.484375 6.890625 26.703125 6.890625  Q 35.15625 6.890625 40.078125 11.328125  Q 45.015625 15.765625 45.015625 23.390625  Q 45.015625 31 40.078125 35.4375  Q 35.15625 39.890625 26.703125 39.890625  Q 22.75 39.890625 18.8125 39.015625  Q 14.890625 38.140625 10.796875 36.28125  z " id="DejaVuSans-53" />
    </defs>
    <g style="fill:#444443;" transform="translate(18.364078 88.561977)scale(0.09 -0.09)">
     <use xlink:href="#DejaVuSans-110" />
     <use x="63.378906" xlink:href="#DejaVuSans-61" />
     <use x="147.167969" xlink:href="#DejaVuSans-49" />
     <use x="210.791016" xlink:href="#DejaVuSans-51" />
     <use x="274.414062" xlink:href="#DejaVuSans-55" />
     <use x="338.037109" xlink:href="#DejaVuSans-49" />
     <use x="401.660156" xlink:href="#DejaVuSans-53" />
    </g>
    
    <defs>
     <path d="M 39.40625 66.21875  Q 28.65625 66.21875 22.328125 58.203125  Q 16.015625 50.203125 16.015625 36.375  Q 16.015625 22.609375 22.328125 14.59375  Q 28.65625 6.59375 39.40625 6.59375  Q 50.140625 6.59375 56.421875 14.59375  Q 62.703125 22.609375 62.703125 36.375  Q 62.703125 50.203125 56.421875 58.203125  Q 50.140625 66.21875 39.40625 66.21875  z M 53.21875 1.3125  L 66.21875 -12.890625  L 54.296875 -12.890625  L 43.5 -1.21875  Q 41.890625 -1.3125 41.03125 -1.359375  Q 40.1875 -1.421875 39.40625 -1.421875  Q 24.03125 -1.421875 14.8125 8.859375  Q 5.609375 19.140625 5.609375 36.375  Q 5.609375 53.65625 14.8125 63.9375  Q 24.03125 74.21875 39.40625 74.21875  Q 54.734375 74.21875 63.90625 63.9375  Q 73.09375 53.65625 73.09375 36.375  Q 73.09375 23.6875 67.984375 14.640625  Q 62.890625 5.609375 53.21875 1.3125  z " id="DejaVuSans-81" />
     <path d="M 53.515625 70.515625  L 53.515625 60.890625  Q 47.90625 63.578125 42.921875 64.890625  Q 37.9375 66.21875 33.296875 66.21875  Q 25.25 66.21875 20.875 63.09375  Q 16.5 59.96875 16.5 54.203125  Q 16.5 49.359375 19.40625 46.890625  Q 22.3125 44.4375 30.421875 42.921875  L 36.375 41.703125  Q 47.40625 39.59375 52.65625 34.296875  Q 57.90625 29 57.90625 20.125  Q 57.90625 9.515625 50.796875 4.046875  Q 43.703125 -1.421875 29.984375 -1.421875  Q 24.8125 -1.421875 18.96875 -0.25  Q 13.140625 0.921875 6.890625 3.21875  L 6.890625 13.375  Q 12.890625 10.015625 18.65625 8.296875  Q 24.421875 6.59375 29.984375 6.59375  Q 38.421875 6.59375 43.015625 9.90625  Q 47.609375 13.234375 47.609375 19.390625  Q 47.609375 24.75 44.3125 27.78125  Q 41.015625 30.8125 33.5 32.328125  L 27.484375 33.5  Q 16.453125 35.6875 11.515625 40.375  Q 6.59375 45.0625 6.59375 53.421875  Q 6.59375 63.09375 13.40625 68.65625  Q 20.21875 74.21875 32.171875 74.21875  Q 37.3125 74.21875 42.625 73.28125  Q 47.953125 72.359375 53.515625 70.515625  z " id="DejaVuSans-83" />
     <path d="M 39.40625 66.21875  Q 28.65625 66.21875 22.328125 58.203125  Q 16.015625 50.203125 16.015625 36.375  Q 16.015625 22.609375 22.328125 14.59375  Q 28.65625 6.59375 39.40625 6.59375  Q 50.140625 6.59375 56.421875 14.59375  Q 62.703125 22.609375 62.703125 36.375  Q 62.703125 50.203125 56.421875 58.203125  Q 50.140625 66.21875 39.40625 66.21875  z M 39.40625 74.21875  Q 54.734375 74.21875 63.90625 63.9375  Q 73.09375 53.65625 73.09375 36.375  Q 73.09375 19.140625 63.90625 8.859375  Q 54.734375 -1.421875 39.40625 -1.421875  Q 24.03125 -1.421875 14.8125 8.828125  Q 5.609375 19.09375 5.609375 36.375  Q 5.609375 53.65625 14.8125 63.9375  Q 24.03125 74.21875 39.40625 74.21875  z " id="DejaVuSans-79" />
    </defs>
    <g style="fill:#444443;" transform="translate(29.360953 98.640008)scale(0.09 -0.09)">
     <use xlink:href="#DejaVuSans-81" />
     <use x="78.710938" xlink:href="#DejaVuSans-83" />
     <use x="142.1875" xlink:href="#DejaVuSans-79" />
    </g>
   </g>
  </g>
 </g>
</svg></g>

<g class="edge" id="edge2">
<title>node2-&gt;leaf4</title>
<path d="M99.6087,-100.9801C98.5915,-97.4733 97.2383,-92.8085 95.7371,-87.6331" fill="none" stroke="#444443" stroke-width=".3" />
<polygon fill="#444443" points="97.0223,-87.0381 94.5633,-83.5866 94.3331,-87.8183 97.0223,-87.0381" stroke="#444443" stroke-width=".3" />
</g>

<g class="node" id="node10">
<title>leaf6</title>
<polygon fill="none" points="190,-83.5 123,-83.5 123,-.5 190,-.5 190,-83.5" stroke="#444443" stroke-width="0" />
<svg height="75px" preserveAspectRatio="xMinYMin meet" version="1.1" viewBox="0 0 78.780691 100.735675" width="59px" x="127.5" y="-79">
 <defs>
  <style type="text/css">
*{stroke-linecap:butt;stroke-linejoin:round;}
  </style>
 </defs>
 <g id="figure_1">
  <g id="patch_1">
   <path d="M 0 100.735675  L 78.780691 100.735675  L 78.780691 0  L 0 0  z " style="fill:#ffffff;" />
  </g>
  <g id="axes_1">
   <g id="patch_2">
    <path d="M 78.780691 39.546531  C 78.780691 34.727037 77.893241 29.948483 76.162817 25.450355  C 74.432393 20.952227 71.888394 16.810945 68.658318 13.234057  C 65.428241 9.657169 61.566963 6.705444 57.267999 4.526813  C 52.969035 2.348182 48.305421 0.979659 43.510884 0.48983  C 38.716346 0 33.87234 0.397186 29.221633 1.661482  C 24.570925 2.925777 20.192529 5.035703 16.305874 7.885517  C 12.419218 10.73533 9.090337 14.276615 6.486062 18.331892  C 3.881788 22.38717 2.046364 26.887544 1.071778 31.607471  C 0.097192 36.327397 0 41.186687 0.785074 45.941809  C 1.570148 50.696931 3.224149 55.267098 5.664185 59.423268  C 8.104221 63.579437 11.288837 67.251 15.05843 70.253947  C 18.828023 73.256895 23.118549 75.54021 27.714983 76.989459  C 32.311416 78.438709 37.135666 79.029272 41.945955 78.73155  C 46.756245 78.433829 51.470851 77.252881 55.853492 75.247893  C 60.236134 73.242905 64.212352 70.447939 67.582873 67.003071  C 70.953393 63.558203 73.660952 59.521958 75.569856 55.096621  L 39.520691 39.546531  L 78.780691 39.546531  z " style="fill:#fefebb;stroke:#444443;stroke-linejoin:miter;stroke-width:0.5;" />
   </g>
   <g id="patch_3">
    <path d="M 75.569856 55.096621  C 75.569856 55.096621 75.569856 55.096621 75.569856 55.096621  L 39.520691 39.546531  L 75.569856 55.096621  z " style="fill:#d9e6f5;stroke:#444443;stroke-linejoin:miter;stroke-width:0.5;" />
   </g>
   <g id="patch_4">
    <path d="M 75.569856 55.096621  C 76.626212 52.647712 77.430284 50.097522 77.969604 47.485591  C 78.508924 44.873661 78.780691 42.213559 78.780691 39.54653  L 39.520691 39.546531  L 75.569856 55.096621  z " style="fill:#a1dab4;stroke:#444443;stroke-linejoin:miter;stroke-width:0.5;" />
   </g>
   <g id="text_1">
    
    <defs>
     <path d="M 54.890625 33.015625  L 54.890625 0  L 45.90625 0  L 45.90625 32.71875  Q 45.90625 40.484375 42.875 44.328125  Q 39.84375 48.1875 33.796875 48.1875  Q 26.515625 48.1875 22.3125 43.546875  Q 18.109375 38.921875 18.109375 30.90625  L 18.109375 0  L 9.078125 0  L 9.078125 54.6875  L 18.109375 54.6875  L 18.109375 46.1875  Q 21.34375 51.125 25.703125 53.5625  Q 30.078125 56 35.796875 56  Q 45.21875 56 50.046875 50.171875  Q 54.890625 44.34375 54.890625 33.015625  z " id="DejaVuSans-110" />
     <path d="M 10.59375 45.40625  L 73.1875 45.40625  L 73.1875 37.203125  L 10.59375 37.203125  z M 10.59375 25.484375  L 73.1875 25.484375  L 73.1875 17.1875  L 10.59375 17.1875  z " id="DejaVuSans-61" />
     <path d="M 37.796875 64.3125  L 12.890625 25.390625  L 37.796875 25.390625  z M 35.203125 72.90625  L 47.609375 72.90625  L 47.609375 25.390625  L 58.015625 25.390625  L 58.015625 17.1875  L 47.609375 17.1875  L 47.609375 0  L 37.796875 0  L 37.796875 17.1875  L 4.890625 17.1875  L 4.890625 26.703125  z " id="DejaVuSans-52" />
     <path d="M 40.578125 39.3125  Q 47.65625 37.796875 51.625 33  Q 55.609375 28.21875 55.609375 21.1875  Q 55.609375 10.40625 48.1875 4.484375  Q 40.765625 -1.421875 27.09375 -1.421875  Q 22.515625 -1.421875 17.65625 -0.515625  Q 12.796875 0.390625 7.625 2.203125  L 7.625 11.71875  Q 11.71875 9.328125 16.59375 8.109375  Q 21.484375 6.890625 26.8125 6.890625  Q 36.078125 6.890625 40.9375 10.546875  Q 45.796875 14.203125 45.796875 21.1875  Q 45.796875 27.640625 41.28125 31.265625  Q 36.765625 34.90625 28.71875 34.90625  L 20.21875 34.90625  L 20.21875 43.015625  L 29.109375 43.015625  Q 36.375 43.015625 40.234375 45.921875  Q 44.09375 48.828125 44.09375 54.296875  Q 44.09375 59.90625 40.109375 62.90625  Q 36.140625 65.921875 28.71875 65.921875  Q 24.65625 65.921875 20.015625 65.03125  Q 15.375 64.15625 9.8125 62.3125  L 9.8125 71.09375  Q 15.4375 72.65625 20.34375 73.4375  Q 25.25 74.21875 29.59375 74.21875  Q 40.828125 74.21875 47.359375 69.109375  Q 53.90625 64.015625 53.90625 55.328125  Q 53.90625 49.265625 50.4375 45.09375  Q 46.96875 40.921875 40.578125 39.3125  z " id="DejaVuSans-51" />
     <path d="M 10.984375 1.515625  L 10.984375 10.5  Q 14.703125 8.734375 18.5 7.8125  Q 22.3125 6.890625 25.984375 6.890625  Q 35.75 6.890625 40.890625 13.453125  Q 46.046875 20.015625 46.78125 33.40625  Q 43.953125 29.203125 39.59375 26.953125  Q 35.25 24.703125 29.984375 24.703125  Q 19.046875 24.703125 12.671875 31.3125  Q 6.296875 37.9375 6.296875 49.421875  Q 6.296875 60.640625 12.9375 67.421875  Q 19.578125 74.21875 30.609375 74.21875  Q 43.265625 74.21875 49.921875 64.515625  Q 56.59375 54.828125 56.59375 36.375  Q 56.59375 19.140625 48.40625 8.859375  Q 40.234375 -1.421875 26.421875 -1.421875  Q 22.703125 -1.421875 18.890625 -0.6875  Q 15.09375 0.046875 10.984375 1.515625  z M 30.609375 32.421875  Q 37.25 32.421875 41.125 36.953125  Q 45.015625 41.5 45.015625 49.421875  Q 45.015625 57.28125 41.125 61.84375  Q 37.25 66.40625 30.609375 66.40625  Q 23.96875 66.40625 20.09375 61.84375  Q 16.21875 57.28125 16.21875 49.421875  Q 16.21875 41.5 20.09375 36.953125  Q 23.96875 32.421875 30.609375 32.421875  z " id="DejaVuSans-57" />
    </defs>
    <g style="fill:#444443;" transform="translate(24.308582 88.785925)scale(0.09 -0.09)">
     <use xlink:href="#DejaVuSans-110" />
     <use x="63.378906" xlink:href="#DejaVuSans-61" />
     <use x="147.167969" xlink:href="#DejaVuSans-52" />
     <use x="210.791016" xlink:href="#DejaVuSans-51" />
     <use x="274.414062" xlink:href="#DejaVuSans-57" />
    </g>
    
    <defs>
     <path d="M 59.515625 10.40625  L 59.515625 29.984375  L 43.40625 29.984375  L 43.40625 38.09375  L 69.28125 38.09375  L 69.28125 6.78125  Q 63.578125 2.734375 56.6875 0.65625  Q 49.8125 -1.421875 42 -1.421875  Q 24.90625 -1.421875 15.25 8.5625  Q 5.609375 18.5625 5.609375 36.375  Q 5.609375 54.25 15.25 64.234375  Q 24.90625 74.21875 42 74.21875  Q 49.125 74.21875 55.546875 72.453125  Q 61.96875 70.703125 67.390625 67.28125  L 67.390625 56.78125  Q 61.921875 61.421875 55.765625 63.765625  Q 49.609375 66.109375 42.828125 66.109375  Q 29.4375 66.109375 22.71875 58.640625  Q 16.015625 51.171875 16.015625 36.375  Q 16.015625 21.625 22.71875 14.15625  Q 29.4375 6.6875 42.828125 6.6875  Q 48.046875 6.6875 52.140625 7.59375  Q 56.25 8.5 59.515625 10.40625  z " id="DejaVuSans-71" />
     <path d="M 34.1875 63.1875  L 20.796875 26.90625  L 47.609375 26.90625  z M 28.609375 72.90625  L 39.796875 72.90625  L 67.578125 0  L 57.328125 0  L 50.6875 18.703125  L 17.828125 18.703125  L 11.1875 0  L 0.78125 0  z " id="DejaVuSans-65" />
     <path d="M 9.8125 72.90625  L 19.671875 72.90625  L 19.671875 8.296875  L 55.171875 8.296875  L 55.171875 0  L 9.8125 0  z " id="DejaVuSans-76" />
     <path d="M 6.296875 72.90625  L 16.890625 72.90625  L 35.015625 45.796875  L 53.21875 72.90625  L 63.8125 72.90625  L 40.375 37.890625  L 65.375 0  L 54.78125 0  L 34.28125 31  L 13.625 0  L 2.984375 0  L 29 38.921875  z " id="DejaVuSans-88" />
     <path d="M -0.203125 72.90625  L 10.40625 72.90625  L 30.609375 42.921875  L 50.6875 72.90625  L 61.28125 72.90625  L 35.5 34.71875  L 35.5 0  L 25.59375 0  L 25.59375 34.71875  z " id="DejaVuSans-89" />
    </defs>
    <g style="fill:#444443;" transform="translate(21.437722 98.863956)scale(0.09 -0.09)">
     <use xlink:href="#DejaVuSans-71" />
     <use x="77.490234" xlink:href="#DejaVuSans-65" />
     <use x="145.898438" xlink:href="#DejaVuSans-76" />
     <use x="203.861328" xlink:href="#DejaVuSans-65" />
     <use x="272.269531" xlink:href="#DejaVuSans-88" />
     <use x="340.775391" xlink:href="#DejaVuSans-89" />
    </g>
   </g>
  </g>
 </g>
</svg></g>

<g class="edge" id="edge4">
<title>node5-&gt;leaf6</title>
<path d="M209.6272,-100.9801C205.4445,-96.3367 199.4332,-89.6631 192.9467,-82.462" fill="none" stroke="#444443" stroke-width=".3" />
<polygon fill="#444443" points="193.859,-81.383 190.1416,-79.3479 191.7786,-83.257 193.859,-81.383" stroke="#444443" stroke-width=".3" />
</g>

<g class="node" id="node11">
<title>leaf7</title>
<polygon fill="none" points="271,-83.5 204,-83.5 204,-.5 271,-.5 271,-83.5" stroke="#444443" stroke-width="0" />
<svg height="75px" preserveAspectRatio="xMinYMin meet" version="1.1" viewBox="0 0 78.638181 100.616714" width="59px" x="208.5" y="-79">
 <defs>
  <style type="text/css">
*{stroke-linecap:butt;stroke-linejoin:round;}
  </style>
 </defs>
 <g id="figure_1">
  <g id="patch_1">
   <path d="M 0 100.616714  L 78.638181 100.616714  L 78.638181 0  L 0 0  z " style="fill:#ffffff;" />
  </g>
  <g id="axes_1">
   <g id="patch_2">
    <path d="M 78.638181 39.42757  C 78.638181 39.105729 78.634224 38.7839 78.62631 38.462156  C 78.618396 38.140412 78.606525 37.818778 78.590702 37.497326  L 39.378181 39.42757  L 78.638181 39.42757  z " style="fill:#fefebb;stroke:#444443;stroke-linejoin:miter;stroke-width:0.5;" />
   </g>
   <g id="patch_3">
    <path d="M 78.590702 37.497326  C 78.590028 37.483647 78.589348 37.469969 78.58866 37.456291  C 78.587973 37.442613 78.587278 37.428935 78.586576 37.415258  L 39.378181 39.42757  L 78.590702 37.497326  z " style="fill:#d9e6f5;stroke:#444443;stroke-linejoin:miter;stroke-width:0.5;" />
   </g>
   <g id="patch_4">
    <path d="M 78.586576 37.415258  C 78.324492 32.308744 77.067303 27.30227 74.8858 22.677746  C 72.704298 18.053222 69.64021 13.899107 65.866072 10.449315  C 62.091935 6.999524 57.679941 4.320044 52.878525 2.561755  C 48.077109 0.803465 42.978114 0 37.86866 0.196601  C 32.759205 0.393201 27.737027 1.586107 23.084917 3.708147  C 18.432807 5.830188 14.239755 8.840771 10.741865 12.570374  C 7.243974 16.299978 4.508156 20.67726 2.688461 25.455742  C 0.868765 30.234223 -0 35.322499 0.131085 40.434054  C 0.26217 45.545609 1.390597 50.582667 3.452826 55.261597  C 5.515055 59.940528 8.471638 64.171829 12.156095 67.717243  C 15.840552 71.262657 20.182403 74.054364 24.937164 75.935167  C 29.691926 77.81597 34.768647 78.749891 39.881462 78.684344  C 44.994278 78.618796 50.045387 77.555034 54.75037 75.552955  C 59.455352 73.550876 63.724207 70.648777 67.316562 67.010073  C 70.908916 63.371369 73.756054 59.065663 75.697655 54.335402  C 77.639256 49.605142 78.638181 44.540811 78.638181 39.427575  L 39.378181 39.42757  L 78.586576 37.415258  z " style="fill:#a1dab4;stroke:#444443;stroke-linejoin:miter;stroke-width:0.5;" />
   </g>
   <g id="text_1">
    
    <defs>
     <path d="M 54.890625 33.015625  L 54.890625 0  L 45.90625 0  L 45.90625 32.71875  Q 45.90625 40.484375 42.875 44.328125  Q 39.84375 48.1875 33.796875 48.1875  Q 26.515625 48.1875 22.3125 43.546875  Q 18.109375 38.921875 18.109375 30.90625  L 18.109375 0  L 9.078125 0  L 9.078125 54.6875  L 18.109375 54.6875  L 18.109375 46.1875  Q 21.34375 51.125 25.703125 53.5625  Q 30.078125 56 35.796875 56  Q 45.21875 56 50.046875 50.171875  Q 54.890625 44.34375 54.890625 33.015625  z " id="DejaVuSans-110" />
     <path d="M 10.59375 45.40625  L 73.1875 45.40625  L 73.1875 37.203125  L 10.59375 37.203125  z M 10.59375 25.484375  L 73.1875 25.484375  L 73.1875 17.1875  L 10.59375 17.1875  z " id="DejaVuSans-61" />
     <path d="M 8.203125 72.90625  L 55.078125 72.90625  L 55.078125 68.703125  L 28.609375 0  L 18.3125 0  L 43.21875 64.59375  L 8.203125 64.59375  z " id="DejaVuSans-55" />
     <path d="M 10.984375 1.515625  L 10.984375 10.5  Q 14.703125 8.734375 18.5 7.8125  Q 22.3125 6.890625 25.984375 6.890625  Q 35.75 6.890625 40.890625 13.453125  Q 46.046875 20.015625 46.78125 33.40625  Q 43.953125 29.203125 39.59375 26.953125  Q 35.25 24.703125 29.984375 24.703125  Q 19.046875 24.703125 12.671875 31.3125  Q 6.296875 37.9375 6.296875 49.421875  Q 6.296875 60.640625 12.9375 67.421875  Q 19.578125 74.21875 30.609375 74.21875  Q 43.265625 74.21875 49.921875 64.515625  Q 56.59375 54.828125 56.59375 36.375  Q 56.59375 19.140625 48.40625 8.859375  Q 40.234375 -1.421875 26.421875 -1.421875  Q 22.703125 -1.421875 18.890625 -0.6875  Q 15.09375 0.046875 10.984375 1.515625  z M 30.609375 32.421875  Q 37.25 32.421875 41.125 36.953125  Q 45.015625 41.5 45.015625 49.421875  Q 45.015625 57.28125 41.125 61.84375  Q 37.25 66.40625 30.609375 66.40625  Q 23.96875 66.40625 20.09375 61.84375  Q 16.21875 57.28125 16.21875 49.421875  Q 16.21875 41.5 20.09375 36.953125  Q 23.96875 32.421875 30.609375 32.421875  z " id="DejaVuSans-57" />
     <path d="M 10.796875 72.90625  L 49.515625 72.90625  L 49.515625 64.59375  L 19.828125 64.59375  L 19.828125 46.734375  Q 21.96875 47.46875 24.109375 47.828125  Q 26.265625 48.1875 28.421875 48.1875  Q 40.625 48.1875 47.75 41.5  Q 54.890625 34.8125 54.890625 23.390625  Q 54.890625 11.625 47.5625 5.09375  Q 40.234375 -1.421875 26.90625 -1.421875  Q 22.3125 -1.421875 17.546875 -0.640625  Q 12.796875 0.140625 7.71875 1.703125  L 7.71875 11.625  Q 12.109375 9.234375 16.796875 8.0625  Q 21.484375 6.890625 26.703125 6.890625  Q 35.15625 6.890625 40.078125 11.328125  Q 45.015625 15.765625 45.015625 23.390625  Q 45.015625 31 40.078125 35.4375  Q 35.15625 39.890625 26.703125 39.890625  Q 22.75 39.890625 18.8125 39.015625  Q 14.890625 38.140625 10.796875 36.28125  z " id="DejaVuSans-53" />
     <path d="M 19.1875 8.296875  L 53.609375 8.296875  L 53.609375 0  L 7.328125 0  L 7.328125 8.296875  Q 12.9375 14.109375 22.625 23.890625  Q 32.328125 33.6875 34.8125 36.53125  Q 39.546875 41.84375 41.421875 45.53125  Q 43.3125 49.21875 43.3125 52.78125  Q 43.3125 58.59375 39.234375 62.25  Q 35.15625 65.921875 28.609375 65.921875  Q 23.96875 65.921875 18.8125 64.3125  Q 13.671875 62.703125 7.8125 59.421875  L 7.8125 69.390625  Q 13.765625 71.78125 18.9375 73  Q 24.125 74.21875 28.421875 74.21875  Q 39.75 74.21875 46.484375 68.546875  Q 53.21875 62.890625 53.21875 53.421875  Q 53.21875 48.921875 51.53125 44.890625  Q 49.859375 40.875 45.40625 35.40625  Q 44.1875 33.984375 37.640625 27.21875  Q 31.109375 20.453125 19.1875 8.296875  z " id="DejaVuSans-50" />
    </defs>
    <g style="fill:#444443;" transform="translate(21.302947 88.666964)scale(0.09 -0.09)">
     <use xlink:href="#DejaVuSans-110" />
     <use x="63.378906" xlink:href="#DejaVuSans-61" />
     <use x="147.167969" xlink:href="#DejaVuSans-55" />
     <use x="210.791016" xlink:href="#DejaVuSans-57" />
     <use x="274.414062" xlink:href="#DejaVuSans-53" />
     <use x="338.037109" xlink:href="#DejaVuSans-50" />
    </g>
    
    <defs>
     <path d="M 39.40625 66.21875  Q 28.65625 66.21875 22.328125 58.203125  Q 16.015625 50.203125 16.015625 36.375  Q 16.015625 22.609375 22.328125 14.59375  Q 28.65625 6.59375 39.40625 6.59375  Q 50.140625 6.59375 56.421875 14.59375  Q 62.703125 22.609375 62.703125 36.375  Q 62.703125 50.203125 56.421875 58.203125  Q 50.140625 66.21875 39.40625 66.21875  z M 53.21875 1.3125  L 66.21875 -12.890625  L 54.296875 -12.890625  L 43.5 -1.21875  Q 41.890625 -1.3125 41.03125 -1.359375  Q 40.1875 -1.421875 39.40625 -1.421875  Q 24.03125 -1.421875 14.8125 8.859375  Q 5.609375 19.140625 5.609375 36.375  Q 5.609375 53.65625 14.8125 63.9375  Q 24.03125 74.21875 39.40625 74.21875  Q 54.734375 74.21875 63.90625 63.9375  Q 73.09375 53.65625 73.09375 36.375  Q 73.09375 23.6875 67.984375 14.640625  Q 62.890625 5.609375 53.21875 1.3125  z " id="DejaVuSans-81" />
     <path d="M 53.515625 70.515625  L 53.515625 60.890625  Q 47.90625 63.578125 42.921875 64.890625  Q 37.9375 66.21875 33.296875 66.21875  Q 25.25 66.21875 20.875 63.09375  Q 16.5 59.96875 16.5 54.203125  Q 16.5 49.359375 19.40625 46.890625  Q 22.3125 44.4375 30.421875 42.921875  L 36.375 41.703125  Q 47.40625 39.59375 52.65625 34.296875  Q 57.90625 29 57.90625 20.125  Q 57.90625 9.515625 50.796875 4.046875  Q 43.703125 -1.421875 29.984375 -1.421875  Q 24.8125 -1.421875 18.96875 -0.25  Q 13.140625 0.921875 6.890625 3.21875  L 6.890625 13.375  Q 12.890625 10.015625 18.65625 8.296875  Q 24.421875 6.59375 29.984375 6.59375  Q 38.421875 6.59375 43.015625 9.90625  Q 47.609375 13.234375 47.609375 19.390625  Q 47.609375 24.75 44.3125 27.78125  Q 41.015625 30.8125 33.5 32.328125  L 27.484375 33.5  Q 16.453125 35.6875 11.515625 40.375  Q 6.59375 45.0625 6.59375 53.421875  Q 6.59375 63.09375 13.40625 68.65625  Q 20.21875 74.21875 32.171875 74.21875  Q 37.3125 74.21875 42.625 73.28125  Q 47.953125 72.359375 53.515625 70.515625  z " id="DejaVuSans-83" />
     <path d="M 39.40625 66.21875  Q 28.65625 66.21875 22.328125 58.203125  Q 16.015625 50.203125 16.015625 36.375  Q 16.015625 22.609375 22.328125 14.59375  Q 28.65625 6.59375 39.40625 6.59375  Q 50.140625 6.59375 56.421875 14.59375  Q 62.703125 22.609375 62.703125 36.375  Q 62.703125 50.203125 56.421875 58.203125  Q 50.140625 66.21875 39.40625 66.21875  z M 39.40625 74.21875  Q 54.734375 74.21875 63.90625 63.9375  Q 73.09375 53.65625 73.09375 36.375  Q 73.09375 19.140625 63.90625 8.859375  Q 54.734375 -1.421875 39.40625 -1.421875  Q 24.03125 -1.421875 14.8125 8.828125  Q 5.609375 19.09375 5.609375 36.375  Q 5.609375 53.65625 14.8125 63.9375  Q 24.03125 74.21875 39.40625 74.21875  z " id="DejaVuSans-79" />
    </defs>
    <g style="fill:#444443;" transform="translate(29.436697 98.744995)scale(0.09 -0.09)">
     <use xlink:href="#DejaVuSans-81" />
     <use x="78.710938" xlink:href="#DejaVuSans-83" />
     <use x="142.1875" xlink:href="#DejaVuSans-79" />
    </g>
   </g>
  </g>
 </g>
</svg></g>

<g class="edge" id="edge5">
<title>node5-&gt;leaf7</title>
<path d="M217.6899,-100.9801C218.8677,-97.4733 220.4345,-92.8085 222.1729,-87.6331" fill="none" stroke="#444443" stroke-width=".3" />
<polygon fill="#444443" points="223.5855,-87.8242 223.532,-83.5866 220.9312,-86.9326 223.5855,-87.8242" stroke="#444443" stroke-width=".3" />
</g>

<g class="node" id="node3">
<title>node1</title>
<text fill="#444443" font-family="Helvetica,sans-Serif" font-size="12.00" text-anchor="start" x="191" y="-134.4">redshift@-0.00</text>
</g>

<g class="edge" id="edge7">
<title>node1-&gt;node2</title>
<path d="M202.5089,-130.9904C182.3626,-126.3053 155.1307,-119.9723 134.0188,-115.0625" fill="none" stroke="#444443" stroke-width=".3" />
<polygon fill="#444443" points="134.0951,-113.643 129.8819,-114.1004 133.4608,-116.3702 134.0951,-113.643" stroke="#444443" stroke-width=".3" />
</g>

<g class="edge" id="edge8">
<title>node1-&gt;node5</title>
<path d="M227.171,-130.842C225.2679,-127.0357 222.8393,-122.1786 220.6909,-117.8817" fill="none" stroke="#444443" stroke-width=".3" />
<polygon fill="#444443" points="221.8608,-117.091 218.8197,-114.1394 219.3564,-118.3432 221.8608,-117.091" stroke="#444443" stroke-width=".3" />
</g>

<g class="node" id="node6">
<title>node8</title>
<text fill="#444443" font-family="Helvetica,sans-Serif" font-size="12.00" text-anchor="start" x="289" y="-134.4">redshift@1.00</text>
</g>


<g class="node" id="node4">
<title>node9</title>
<text fill="#444443" font-family="Helvetica,sans-Serif" font-size="12.00" text-anchor="start" x="290" y="-104.4">redshift@0.69</text>
</g>

<g class="node" id="node5">
<title>node12</title>
<text fill="#444443" font-family="Helvetica,sans-Serif" font-size="12.00" text-anchor="start" x="399" y="-104.4">g@22.27</text>
</g>


<g class="node" id="node12">
<title>leaf10</title>
<polygon fill="none" points="345,-83.5 278,-83.5 278,-.5 345,-.5 345,-83.5" stroke="#444443" stroke-width="0" />
<svg height="75px" preserveAspectRatio="xMinYMin meet" version="1.1" viewBox="0 0 78.828874 100.663571" width="59px" x="282.5" y="-79">
 <defs>
  <style type="text/css">
*{stroke-linecap:butt;stroke-linejoin:round;}
  </style>
 </defs>
 <g id="figure_1">
  <g id="patch_1">
   <path d="M 0 100.663571  L 78.828874 100.663571  L 78.828874 0  L 0 0  z " style="fill:#ffffff;" />
  </g>
  <g id="axes_1">
   <g id="patch_2">
    <path d="M 78.828874 39.474427  C 78.828874 34.500915 77.883796 29.5724 76.044033 24.951675  C 74.20427 20.33095 71.503113 16.101626 68.084587 12.489215  C 64.666062 8.876804 60.592028 5.946672 56.079715 3.855055  C 51.567402 1.763438 46.698461 0.548184 41.732507 0.274092  C 36.766552 0 31.793444 0.672029 27.078351 2.254346  C 22.363258 3.836664 17.991501 6.300637 14.196183 9.514885  C 10.400865 12.729134 7.250665 16.635496 4.913551 21.025682  C 2.576438 25.415868 1.094702 30.210436 0.547351 35.153738  C 0 40.09704 0.396938 45.099627 1.717 49.894756  C 3.037062 54.689885 5.256362 59.190789 8.256564 63.157478  C 11.256767 67.124166 14.983583 70.48486 19.238298 73.060366  C 23.493013 75.635873 28.198636 77.379587 33.104261 78.198533  C 38.009886 79.01748 43.026745 78.896839 47.887336 77.843045  C 52.747927 76.78925 57.364297 74.82137 61.490299 72.044332  C 65.616301 69.267295 69.177275 65.731351 71.983346 61.62504  C 74.789417 57.518728 76.78981 52.916353 77.877862 48.063316  L 39.568874 39.474427  L 78.828874 39.474427  z " style="fill:#fefebb;stroke:#444443;stroke-linejoin:miter;stroke-width:0.5;" />
   </g>
   <g id="patch_3">
    <path d="M 77.877862 48.063316  C 78.19366 46.654763 78.431533 45.229866 78.590397 43.795115  C 78.749261 42.360364 78.828874 40.917943 78.828874 39.474424  L 39.568874 39.474427  L 77.877862 48.063316  z " style="fill:#d9e6f5;stroke:#444443;stroke-linejoin:miter;stroke-width:0.5;" />
   </g>
   <g id="patch_4">
    <path d="M 78.828874 39.474424  C 78.828874 39.474424 78.828874 39.474424 78.828874 39.474424  L 39.568874 39.474427  L 78.828874 39.474424  z " style="fill:#a1dab4;stroke:#444443;stroke-linejoin:miter;stroke-width:0.5;" />
   </g>
   <g id="text_1">
    
    <defs>
     <path d="M 54.890625 33.015625  L 54.890625 0  L 45.90625 0  L 45.90625 32.71875  Q 45.90625 40.484375 42.875 44.328125  Q 39.84375 48.1875 33.796875 48.1875  Q 26.515625 48.1875 22.3125 43.546875  Q 18.109375 38.921875 18.109375 30.90625  L 18.109375 0  L 9.078125 0  L 9.078125 54.6875  L 18.109375 54.6875  L 18.109375 46.1875  Q 21.34375 51.125 25.703125 53.5625  Q 30.078125 56 35.796875 56  Q 45.21875 56 50.046875 50.171875  Q 54.890625 44.34375 54.890625 33.015625  z " id="DejaVuSans-110" />
     <path d="M 10.59375 45.40625  L 73.1875 45.40625  L 73.1875 37.203125  L 10.59375 37.203125  z M 10.59375 25.484375  L 73.1875 25.484375  L 73.1875 17.1875  L 10.59375 17.1875  z " id="DejaVuSans-61" />
     <path d="M 10.796875 72.90625  L 49.515625 72.90625  L 49.515625 64.59375  L 19.828125 64.59375  L 19.828125 46.734375  Q 21.96875 47.46875 24.109375 47.828125  Q 26.265625 48.1875 28.421875 48.1875  Q 40.625 48.1875 47.75 41.5  Q 54.890625 34.8125 54.890625 23.390625  Q 54.890625 11.625 47.5625 5.09375  Q 40.234375 -1.421875 26.90625 -1.421875  Q 22.3125 -1.421875 17.546875 -0.640625  Q 12.796875 0.140625 7.71875 1.703125  L 7.71875 11.625  Q 12.109375 9.234375 16.796875 8.0625  Q 21.484375 6.890625 26.703125 6.890625  Q 35.15625 6.890625 40.078125 11.328125  Q 45.015625 15.765625 45.015625 23.390625  Q 45.015625 31 40.078125 35.4375  Q 35.15625 39.890625 26.703125 39.890625  Q 22.75 39.890625 18.8125 39.015625  Q 14.890625 38.140625 10.796875 36.28125  z " id="DejaVuSans-53" />
     <path d="M 12.40625 8.296875  L 28.515625 8.296875  L 28.515625 63.921875  L 10.984375 60.40625  L 10.984375 69.390625  L 28.421875 72.90625  L 38.28125 72.90625  L 38.28125 8.296875  L 54.390625 8.296875  L 54.390625 0  L 12.40625 0  z " id="DejaVuSans-49" />
     <path d="M 10.984375 1.515625  L 10.984375 10.5  Q 14.703125 8.734375 18.5 7.8125  Q 22.3125 6.890625 25.984375 6.890625  Q 35.75 6.890625 40.890625 13.453125  Q 46.046875 20.015625 46.78125 33.40625  Q 43.953125 29.203125 39.59375 26.953125  Q 35.25 24.703125 29.984375 24.703125  Q 19.046875 24.703125 12.671875 31.3125  Q 6.296875 37.9375 6.296875 49.421875  Q 6.296875 60.640625 12.9375 67.421875  Q 19.578125 74.21875 30.609375 74.21875  Q 43.265625 74.21875 49.921875 64.515625  Q 56.59375 54.828125 56.59375 36.375  Q 56.59375 19.140625 48.40625 8.859375  Q 40.234375 -1.421875 26.421875 -1.421875  Q 22.703125 -1.421875 18.890625 -0.6875  Q 15.09375 0.046875 10.984375 1.515625  z M 30.609375 32.421875  Q 37.25 32.421875 41.125 36.953125  Q 45.015625 41.5 45.015625 49.421875  Q 45.015625 57.28125 41.125 61.84375  Q 37.25 66.40625 30.609375 66.40625  Q 23.96875 66.40625 20.09375 61.84375  Q 16.21875 57.28125 16.21875 49.421875  Q 16.21875 41.5 20.09375 36.953125  Q 23.96875 32.421875 30.609375 32.421875  z " id="DejaVuSans-57" />
     <path d="M 40.578125 39.3125  Q 47.65625 37.796875 51.625 33  Q 55.609375 28.21875 55.609375 21.1875  Q 55.609375 10.40625 48.1875 4.484375  Q 40.765625 -1.421875 27.09375 -1.421875  Q 22.515625 -1.421875 17.65625 -0.515625  Q 12.796875 0.390625 7.625 2.203125  L 7.625 11.71875  Q 11.71875 9.328125 16.59375 8.109375  Q 21.484375 6.890625 26.8125 6.890625  Q 36.078125 6.890625 40.9375 10.546875  Q 45.796875 14.203125 45.796875 21.1875  Q 45.796875 27.640625 41.28125 31.265625  Q 36.765625 34.90625 28.71875 34.90625  L 20.21875 34.90625  L 20.21875 43.015625  L 29.109375 43.015625  Q 36.375 43.015625 40.234375 45.921875  Q 44.09375 48.828125 44.09375 54.296875  Q 44.09375 59.90625 40.109375 62.90625  Q 36.140625 65.921875 28.71875 65.921875  Q 24.65625 65.921875 20.015625 65.03125  Q 15.375 64.15625 9.8125 62.3125  L 9.8125 71.09375  Q 15.4375 72.65625 20.34375 73.4375  Q 25.25 74.21875 29.59375 74.21875  Q 40.828125 74.21875 47.359375 69.109375  Q 53.90625 64.015625 53.90625 55.328125  Q 53.90625 49.265625 50.4375 45.09375  Q 46.96875 40.921875 40.578125 39.3125  z " id="DejaVuSans-51" />
    </defs>
    <g style="fill:#444443;" transform="translate(18.630515 88.713821)scale(0.09 -0.09)">
     <use xlink:href="#DejaVuSans-110" />
     <use x="63.378906" xlink:href="#DejaVuSans-61" />
     <use x="147.167969" xlink:href="#DejaVuSans-53" />
     <use x="210.791016" xlink:href="#DejaVuSans-49" />
     <use x="274.414062" xlink:href="#DejaVuSans-57" />
     <use x="338.037109" xlink:href="#DejaVuSans-51" />
     <use x="401.660156" xlink:href="#DejaVuSans-53" />
    </g>
    
    <defs>
     <path d="M 59.515625 10.40625  L 59.515625 29.984375  L 43.40625 29.984375  L 43.40625 38.09375  L 69.28125 38.09375  L 69.28125 6.78125  Q 63.578125 2.734375 56.6875 0.65625  Q 49.8125 -1.421875 42 -1.421875  Q 24.90625 -1.421875 15.25 8.5625  Q 5.609375 18.5625 5.609375 36.375  Q 5.609375 54.25 15.25 64.234375  Q 24.90625 74.21875 42 74.21875  Q 49.125 74.21875 55.546875 72.453125  Q 61.96875 70.703125 67.390625 67.28125  L 67.390625 56.78125  Q 61.921875 61.421875 55.765625 63.765625  Q 49.609375 66.109375 42.828125 66.109375  Q 29.4375 66.109375 22.71875 58.640625  Q 16.015625 51.171875 16.015625 36.375  Q 16.015625 21.625 22.71875 14.15625  Q 29.4375 6.6875 42.828125 6.6875  Q 48.046875 6.6875 52.140625 7.59375  Q 56.25 8.5 59.515625 10.40625  z " id="DejaVuSans-71" />
     <path d="M 34.1875 63.1875  L 20.796875 26.90625  L 47.609375 26.90625  z M 28.609375 72.90625  L 39.796875 72.90625  L 67.578125 0  L 57.328125 0  L 50.6875 18.703125  L 17.828125 18.703125  L 11.1875 0  L 0.78125 0  z " id="DejaVuSans-65" />
     <path d="M 9.8125 72.90625  L 19.671875 72.90625  L 19.671875 8.296875  L 55.171875 8.296875  L 55.171875 0  L 9.8125 0  z " id="DejaVuSans-76" />
     <path d="M 6.296875 72.90625  L 16.890625 72.90625  L 35.015625 45.796875  L 53.21875 72.90625  L 63.8125 72.90625  L 40.375 37.890625  L 65.375 0  L 54.78125 0  L 34.28125 31  L 13.625 0  L 2.984375 0  L 29 38.921875  z " id="DejaVuSans-88" />
     <path d="M -0.203125 72.90625  L 10.40625 72.90625  L 30.609375 42.921875  L 50.6875 72.90625  L 61.28125 72.90625  L 35.5 34.71875  L 35.5 0  L 25.59375 0  L 25.59375 34.71875  z " id="DejaVuSans-89" />
    </defs>
    <g style="fill:#444443;" transform="translate(21.485905 98.791852)scale(0.09 -0.09)">
     <use xlink:href="#DejaVuSans-71" />
     <use x="77.490234" xlink:href="#DejaVuSans-65" />
     <use x="145.898438" xlink:href="#DejaVuSans-76" />
     <use x="203.861328" xlink:href="#DejaVuSans-65" />
     <use x="272.269531" xlink:href="#DejaVuSans-88" />
     <use x="340.775391" xlink:href="#DejaVuSans-89" />
    </g>
   </g>
  </g>
 </g>
</svg></g>

<g class="edge" id="edge10">
<title>node9-&gt;leaf10</title>
<path d="M325.9074,-100.9801C325.0507,-97.4733 323.9112,-92.8085 322.647,-87.6331" fill="none" stroke="#444443" stroke-width=".3" />
<polygon fill="#444443" points="323.9678,-87.1401 321.6585,-83.5866 321.2478,-87.8046 323.9678,-87.1401" stroke="#444443" stroke-width=".3" />
</g>

<g class="node" id="node13">
<title>leaf11</title>
<polygon fill="none" points="426,-83.5 359,-83.5 359,-.5 426,-.5 426,-83.5" stroke="#444443" stroke-width="0" />
<svg height="75px" preserveAspectRatio="xMinYMin meet" version="1.1" viewBox="0 0 78.556828 100.467991" width="59px" x="363.5" y="-79">
 <defs>
  <style type="text/css">
*{stroke-linecap:butt;stroke-linejoin:round;}
  </style>
 </defs>
 <g id="figure_1">
  <g id="patch_1">
   <path d="M 0 100.467991  L 78.556828 100.467991  L 78.556828 0  L 0 0  z " style="fill:#ffffff;" />
  </g>
  <g id="axes_1">
   <g id="patch_2">
    <path d="M 78.556828 39.278847  C 78.556828 35.171475 77.91226 31.08943 76.64668 27.181897  C 75.3811 23.274364 73.510116 19.589533 71.102106 16.262073  C 68.694097 12.934612 65.778758 10.005557 62.462637 7.581956  C 59.146516 5.158354 55.470507 3.270095 51.568958 1.986188  C 47.667409 0.70228 43.588434 0.038559 39.481108 0.019279  C 35.373781 0 31.288755 0.625401 27.375325 1.872626  C 23.461895 3.119851 19.768323 4.973518 16.429596 7.365883  C 13.090869 9.758247 10.148162 12.659805 7.709022 15.964514  C 5.269882 19.269223 3.364389 22.936327 2.062183 26.831807  C 0.759977 30.727287 0.077116 34.803101 0.038558 38.910292  C 0 43.017483 0.60622 47.105399 1.835062 51.02464  C 3.063904 54.943882 4.900214 58.646114 7.276881 61.996033  C 9.653548 65.345953 12.541261 68.302246 15.834484 70.756871  C 19.127708 73.211496 22.785828 75.134181 26.675153 76.454658  C 30.564477 77.775134 34.637042 78.477118 38.744006 78.534954  C 42.850971 78.592791 46.941688 78.005765 50.866654 76.795333  L 39.296828 39.278847  L 78.556828 39.278847  z " style="fill:#fefebb;stroke:#444443;stroke-linejoin:miter;stroke-width:0.5;" />
   </g>
   <g id="patch_3">
    <path d="M 50.866654 76.795333  C 58.884353 74.32273 65.902096 69.343853 70.884634 62.59318  C 75.867172 55.842507 78.556828 47.669155 78.556828 39.278847  L 39.296828 39.278847  L 50.866654 76.795333  z " style="fill:#d9e6f5;stroke:#444443;stroke-linejoin:miter;stroke-width:0.5;" />
   </g>
   <g id="patch_4">
    <path d="M 78.556828 39.278847  C 78.556828 39.278847 78.556828 39.278847 78.556828 39.278847  L 39.296828 39.278847  L 78.556828 39.278847  z " style="fill:#a1dab4;stroke:#444443;stroke-linejoin:miter;stroke-width:0.5;" />
   </g>
   <g id="text_1">
    
    <defs>
     <path d="M 54.890625 33.015625  L 54.890625 0  L 45.90625 0  L 45.90625 32.71875  Q 45.90625 40.484375 42.875 44.328125  Q 39.84375 48.1875 33.796875 48.1875  Q 26.515625 48.1875 22.3125 43.546875  Q 18.109375 38.921875 18.109375 30.90625  L 18.109375 0  L 9.078125 0  L 9.078125 54.6875  L 18.109375 54.6875  L 18.109375 46.1875  Q 21.34375 51.125 25.703125 53.5625  Q 30.078125 56 35.796875 56  Q 45.21875 56 50.046875 50.171875  Q 54.890625 44.34375 54.890625 33.015625  z " id="DejaVuSans-110" />
     <path d="M 10.59375 45.40625  L 73.1875 45.40625  L 73.1875 37.203125  L 10.59375 37.203125  z M 10.59375 25.484375  L 73.1875 25.484375  L 73.1875 17.1875  L 10.59375 17.1875  z " id="DejaVuSans-61" />
     <path d="M 10.984375 1.515625  L 10.984375 10.5  Q 14.703125 8.734375 18.5 7.8125  Q 22.3125 6.890625 25.984375 6.890625  Q 35.75 6.890625 40.890625 13.453125  Q 46.046875 20.015625 46.78125 33.40625  Q 43.953125 29.203125 39.59375 26.953125  Q 35.25 24.703125 29.984375 24.703125  Q 19.046875 24.703125 12.671875 31.3125  Q 6.296875 37.9375 6.296875 49.421875  Q 6.296875 60.640625 12.9375 67.421875  Q 19.578125 74.21875 30.609375 74.21875  Q 43.265625 74.21875 49.921875 64.515625  Q 56.59375 54.828125 56.59375 36.375  Q 56.59375 19.140625 48.40625 8.859375  Q 40.234375 -1.421875 26.421875 -1.421875  Q 22.703125 -1.421875 18.890625 -0.6875  Q 15.09375 0.046875 10.984375 1.515625  z M 30.609375 32.421875  Q 37.25 32.421875 41.125 36.953125  Q 45.015625 41.5 45.015625 49.421875  Q 45.015625 57.28125 41.125 61.84375  Q 37.25 66.40625 30.609375 66.40625  Q 23.96875 66.40625 20.09375 61.84375  Q 16.21875 57.28125 16.21875 49.421875  Q 16.21875 41.5 20.09375 36.953125  Q 23.96875 32.421875 30.609375 32.421875  z " id="DejaVuSans-57" />
     <path d="M 10.796875 72.90625  L 49.515625 72.90625  L 49.515625 64.59375  L 19.828125 64.59375  L 19.828125 46.734375  Q 21.96875 47.46875 24.109375 47.828125  Q 26.265625 48.1875 28.421875 48.1875  Q 40.625 48.1875 47.75 41.5  Q 54.890625 34.8125 54.890625 23.390625  Q 54.890625 11.625 47.5625 5.09375  Q 40.234375 -1.421875 26.90625 -1.421875  Q 22.3125 -1.421875 17.546875 -0.640625  Q 12.796875 0.140625 7.71875 1.703125  L 7.71875 11.625  Q 12.109375 9.234375 16.796875 8.0625  Q 21.484375 6.890625 26.703125 6.890625  Q 35.15625 6.890625 40.078125 11.328125  Q 45.015625 15.765625 45.015625 23.390625  Q 45.015625 31 40.078125 35.4375  Q 35.15625 39.890625 26.703125 39.890625  Q 22.75 39.890625 18.8125 39.015625  Q 14.890625 38.140625 10.796875 36.28125  z " id="DejaVuSans-53" />
     <path d="M 8.203125 72.90625  L 55.078125 72.90625  L 55.078125 68.703125  L 28.609375 0  L 18.3125 0  L 43.21875 64.59375  L 8.203125 64.59375  z " id="DejaVuSans-55" />
    </defs>
    <g style="fill:#444443;" transform="translate(21.221594 88.518241)scale(0.09 -0.09)">
     <use xlink:href="#DejaVuSans-110" />
     <use x="63.378906" xlink:href="#DejaVuSans-61" />
     <use x="147.167969" xlink:href="#DejaVuSans-57" />
     <use x="210.791016" xlink:href="#DejaVuSans-57" />
     <use x="274.414062" xlink:href="#DejaVuSans-53" />
     <use x="338.037109" xlink:href="#DejaVuSans-55" />
    </g>
    
    <defs>
     <path d="M 59.515625 10.40625  L 59.515625 29.984375  L 43.40625 29.984375  L 43.40625 38.09375  L 69.28125 38.09375  L 69.28125 6.78125  Q 63.578125 2.734375 56.6875 0.65625  Q 49.8125 -1.421875 42 -1.421875  Q 24.90625 -1.421875 15.25 8.5625  Q 5.609375 18.5625 5.609375 36.375  Q 5.609375 54.25 15.25 64.234375  Q 24.90625 74.21875 42 74.21875  Q 49.125 74.21875 55.546875 72.453125  Q 61.96875 70.703125 67.390625 67.28125  L 67.390625 56.78125  Q 61.921875 61.421875 55.765625 63.765625  Q 49.609375 66.109375 42.828125 66.109375  Q 29.4375 66.109375 22.71875 58.640625  Q 16.015625 51.171875 16.015625 36.375  Q 16.015625 21.625 22.71875 14.15625  Q 29.4375 6.6875 42.828125 6.6875  Q 48.046875 6.6875 52.140625 7.59375  Q 56.25 8.5 59.515625 10.40625  z " id="DejaVuSans-71" />
     <path d="M 34.1875 63.1875  L 20.796875 26.90625  L 47.609375 26.90625  z M 28.609375 72.90625  L 39.796875 72.90625  L 67.578125 0  L 57.328125 0  L 50.6875 18.703125  L 17.828125 18.703125  L 11.1875 0  L 0.78125 0  z " id="DejaVuSans-65" />
     <path d="M 9.8125 72.90625  L 19.671875 72.90625  L 19.671875 8.296875  L 55.171875 8.296875  L 55.171875 0  L 9.8125 0  z " id="DejaVuSans-76" />
     <path d="M 6.296875 72.90625  L 16.890625 72.90625  L 35.015625 45.796875  L 53.21875 72.90625  L 63.8125 72.90625  L 40.375 37.890625  L 65.375 0  L 54.78125 0  L 34.28125 31  L 13.625 0  L 2.984375 0  L 29 38.921875  z " id="DejaVuSans-88" />
     <path d="M -0.203125 72.90625  L 10.40625 72.90625  L 30.609375 42.921875  L 50.6875 72.90625  L 61.28125 72.90625  L 35.5 34.71875  L 35.5 0  L 25.59375 0  L 25.59375 34.71875  z " id="DejaVuSans-89" />
    </defs>
    <g style="fill:#444443;" transform="translate(21.213859 98.596272)scale(0.09 -0.09)">
     <use xlink:href="#DejaVuSans-71" />
     <use x="77.490234" xlink:href="#DejaVuSans-65" />
     <use x="145.898438" xlink:href="#DejaVuSans-76" />
     <use x="203.861328" xlink:href="#DejaVuSans-65" />
     <use x="272.269531" xlink:href="#DejaVuSans-88" />
     <use x="340.775391" xlink:href="#DejaVuSans-89" />
    </g>
   </g>
  </g>
 </g>
</svg></g>

<g class="edge" id="edge11">
<title>node9-&gt;leaf11</title>
<path d="M333.9701,-100.9801C339.2895,-95.6198 347.2939,-87.5539 355.6889,-79.0943" fill="none" stroke="#444443" stroke-width=".3" />
<polygon fill="#444443" points="356.9713,-79.7895 358.7952,-75.9641 354.9838,-77.8172 356.9713,-79.7895" stroke="#444443" stroke-width=".3" />
</g>

<g class="node" id="node14">
<title>leaf13</title>
<polygon fill="none" points="500,-83.5 433,-83.5 433,-.5 500,-.5 500,-83.5" stroke="#444443" stroke-width="0" />
<svg height="75px" preserveAspectRatio="xMinYMin meet" version="1.1" viewBox="0 0 78.737967 100.731976" width="59px" x="437.5" y="-79">
 <defs>
  <style type="text/css">
*{stroke-linecap:butt;stroke-linejoin:round;}
  </style>
 </defs>
 <g id="figure_1">
  <g id="patch_1">
   <path d="M 0 100.731976  L 78.737967 100.731976  L 78.737967 0  L 0 0  z " style="fill:#ffffff;" />
  </g>
  <g id="axes_1">
   <g id="patch_2">
    <path d="M 78.737967 39.542833  C 78.737967 38.828079 78.718448 38.113459 78.679432 37.399771  C 78.640416 36.686083 78.581918 35.973593 78.504003 35.263099  L 39.477967 39.542833  L 78.737967 39.542833  z " style="fill:#fefebb;stroke:#444443;stroke-linejoin:miter;stroke-width:0.5;" />
   </g>
   <g id="patch_3">
    <path d="M 78.504003 35.263099  C 77.951824 30.22789 76.43035 25.346804 74.023683 20.889654  C 71.617017 16.432504 68.370334 12.482955 64.463102 9.259328  C 60.55587 6.035701 56.061432 3.598508 51.228229 2.082468  C 46.395025 0.566428 41.313781 0 36.265373 0.414495  C 31.216964 0.828989 26.296157 2.216626 21.774958 4.5007  C 17.253759 6.784774 13.217038 9.92241 9.887932 13.740169  C 6.558826 17.557929 3.999827 21.984147 2.35239 26.774156  C 0.704952 31.564164 0 36.628048 0.276501 41.685892  C 0.553003 46.743735 1.805767 51.700595 3.965545 56.282472  C 6.125324 60.864348 9.151574 64.985233 12.877014 68.417336  C 16.602454 71.849438 20.957153 74.528334 25.700395 76.305941  C 30.443637 78.083548 35.486386 78.926498 40.549893 78.788196  C 45.613401 78.649895 50.602617 77.532937 55.241755 75.499064  C 59.880893 73.465192 64.082868 70.552584 67.615408 66.922241  C 71.147949 63.291898 73.944744 59.011966 75.851195 54.319026  C 77.757646 49.626087 78.737966 44.608234 78.737967 39.542838  L 39.477967 39.542833  L 78.504003 35.263099  z " style="fill:#d9e6f5;stroke:#444443;stroke-linejoin:miter;stroke-width:0.5;" />
   </g>
   <g id="patch_4">
    <path d="M 78.737967 39.542838  C 78.737967 39.542838 78.737967 39.542838 78.737967 39.542838  L 39.477967 39.542833  L 78.737967 39.542838  z " style="fill:#a1dab4;stroke:#444443;stroke-linejoin:miter;stroke-width:0.5;" />
   </g>
   <g id="text_1">
    
    <defs>
     <path d="M 54.890625 33.015625  L 54.890625 0  L 45.90625 0  L 45.90625 32.71875  Q 45.90625 40.484375 42.875 44.328125  Q 39.84375 48.1875 33.796875 48.1875  Q 26.515625 48.1875 22.3125 43.546875  Q 18.109375 38.921875 18.109375 30.90625  L 18.109375 0  L 9.078125 0  L 9.078125 54.6875  L 18.109375 54.6875  L 18.109375 46.1875  Q 21.34375 51.125 25.703125 53.5625  Q 30.078125 56 35.796875 56  Q 45.21875 56 50.046875 50.171875  Q 54.890625 44.34375 54.890625 33.015625  z " id="DejaVuSans-110" />
     <path d="M 10.59375 45.40625  L 73.1875 45.40625  L 73.1875 37.203125  L 10.59375 37.203125  z M 10.59375 25.484375  L 73.1875 25.484375  L 73.1875 17.1875  L 10.59375 17.1875  z " id="DejaVuSans-61" />
     <path d="M 12.40625 8.296875  L 28.515625 8.296875  L 28.515625 63.921875  L 10.984375 60.40625  L 10.984375 69.390625  L 28.421875 72.90625  L 38.28125 72.90625  L 38.28125 8.296875  L 54.390625 8.296875  L 54.390625 0  L 12.40625 0  z " id="DejaVuSans-49" />
     <path d="M 37.796875 64.3125  L 12.890625 25.390625  L 37.796875 25.390625  z M 35.203125 72.90625  L 47.609375 72.90625  L 47.609375 25.390625  L 58.015625 25.390625  L 58.015625 17.1875  L 47.609375 17.1875  L 47.609375 0  L 37.796875 0  L 37.796875 17.1875  L 4.890625 17.1875  L 4.890625 26.703125  z " id="DejaVuSans-52" />
     <path d="M 40.578125 39.3125  Q 47.65625 37.796875 51.625 33  Q 55.609375 28.21875 55.609375 21.1875  Q 55.609375 10.40625 48.1875 4.484375  Q 40.765625 -1.421875 27.09375 -1.421875  Q 22.515625 -1.421875 17.65625 -0.515625  Q 12.796875 0.390625 7.625 2.203125  L 7.625 11.71875  Q 11.71875 9.328125 16.59375 8.109375  Q 21.484375 6.890625 26.8125 6.890625  Q 36.078125 6.890625 40.9375 10.546875  Q 45.796875 14.203125 45.796875 21.1875  Q 45.796875 27.640625 41.28125 31.265625  Q 36.765625 34.90625 28.71875 34.90625  L 20.21875 34.90625  L 20.21875 43.015625  L 29.109375 43.015625  Q 36.375 43.015625 40.234375 45.921875  Q 44.09375 48.828125 44.09375 54.296875  Q 44.09375 59.90625 40.109375 62.90625  Q 36.140625 65.921875 28.71875 65.921875  Q 24.65625 65.921875 20.015625 65.03125  Q 15.375 64.15625 9.8125 62.3125  L 9.8125 71.09375  Q 15.4375 72.65625 20.34375 73.4375  Q 25.25 74.21875 29.59375 74.21875  Q 40.828125 74.21875 47.359375 69.109375  Q 53.90625 64.015625 53.90625 55.328125  Q 53.90625 49.265625 50.4375 45.09375  Q 46.96875 40.921875 40.578125 39.3125  z " id="DejaVuSans-51" />
     <path d="M 33.015625 40.375  Q 26.375 40.375 22.484375 35.828125  Q 18.609375 31.296875 18.609375 23.390625  Q 18.609375 15.53125 22.484375 10.953125  Q 26.375 6.390625 33.015625 6.390625  Q 39.65625 6.390625 43.53125 10.953125  Q 47.40625 15.53125 47.40625 23.390625  Q 47.40625 31.296875 43.53125 35.828125  Q 39.65625 40.375 33.015625 40.375  z M 52.59375 71.296875  L 52.59375 62.3125  Q 48.875 64.0625 45.09375 64.984375  Q 41.3125 65.921875 37.59375 65.921875  Q 27.828125 65.921875 22.671875 59.328125  Q 17.53125 52.734375 16.796875 39.40625  Q 19.671875 43.65625 24.015625 45.921875  Q 28.375 48.1875 33.59375 48.1875  Q 44.578125 48.1875 50.953125 41.515625  Q 57.328125 34.859375 57.328125 23.390625  Q 57.328125 12.15625 50.6875 5.359375  Q 44.046875 -1.421875 33.015625 -1.421875  Q 20.359375 -1.421875 13.671875 8.265625  Q 6.984375 17.96875 6.984375 36.375  Q 6.984375 53.65625 15.1875 63.9375  Q 23.390625 74.21875 37.203125 74.21875  Q 40.921875 74.21875 44.703125 73.484375  Q 48.484375 72.75 52.59375 71.296875  z " id="DejaVuSans-54" />
     <path d="M 10.796875 72.90625  L 49.515625 72.90625  L 49.515625 64.59375  L 19.828125 64.59375  L 19.828125 46.734375  Q 21.96875 47.46875 24.109375 47.828125  Q 26.265625 48.1875 28.421875 48.1875  Q 40.625 48.1875 47.75 41.5  Q 54.890625 34.8125 54.890625 23.390625  Q 54.890625 11.625 47.5625 5.09375  Q 40.234375 -1.421875 26.90625 -1.421875  Q 22.3125 -1.421875 17.546875 -0.640625  Q 12.796875 0.140625 7.71875 1.703125  L 7.71875 11.625  Q 12.109375 9.234375 16.796875 8.0625  Q 21.484375 6.890625 26.703125 6.890625  Q 35.15625 6.890625 40.078125 11.328125  Q 45.015625 15.765625 45.015625 23.390625  Q 45.015625 31 40.078125 35.4375  Q 35.15625 39.890625 26.703125 39.890625  Q 22.75 39.890625 18.8125 39.015625  Q 14.890625 38.140625 10.796875 36.28125  z " id="DejaVuSans-53" />
    </defs>
    <g style="fill:#444443;" transform="translate(18.539607 88.782226)scale(0.09 -0.09)">
     <use xlink:href="#DejaVuSans-110" />
     <use x="63.378906" xlink:href="#DejaVuSans-61" />
     <use x="147.167969" xlink:href="#DejaVuSans-49" />
     <use x="210.791016" xlink:href="#DejaVuSans-52" />
     <use x="274.414062" xlink:href="#DejaVuSans-51" />
     <use x="338.037109" xlink:href="#DejaVuSans-54" />
     <use x="401.660156" xlink:href="#DejaVuSans-53" />
    </g>
    
    <defs>
     <path d="M 53.515625 70.515625  L 53.515625 60.890625  Q 47.90625 63.578125 42.921875 64.890625  Q 37.9375 66.21875 33.296875 66.21875  Q 25.25 66.21875 20.875 63.09375  Q 16.5 59.96875 16.5 54.203125  Q 16.5 49.359375 19.40625 46.890625  Q 22.3125 44.4375 30.421875 42.921875  L 36.375 41.703125  Q 47.40625 39.59375 52.65625 34.296875  Q 57.90625 29 57.90625 20.125  Q 57.90625 9.515625 50.796875 4.046875  Q 43.703125 -1.421875 29.984375 -1.421875  Q 24.8125 -1.421875 18.96875 -0.25  Q 13.140625 0.921875 6.890625 3.21875  L 6.890625 13.375  Q 12.890625 10.015625 18.65625 8.296875  Q 24.421875 6.59375 29.984375 6.59375  Q 38.421875 6.59375 43.015625 9.90625  Q 47.609375 13.234375 47.609375 19.390625  Q 47.609375 24.75 44.3125 27.78125  Q 41.015625 30.8125 33.5 32.328125  L 27.484375 33.5  Q 16.453125 35.6875 11.515625 40.375  Q 6.59375 45.0625 6.59375 53.421875  Q 6.59375 63.09375 13.40625 68.65625  Q 20.21875 74.21875 32.171875 74.21875  Q 37.3125 74.21875 42.625 73.28125  Q 47.953125 72.359375 53.515625 70.515625  z " id="DejaVuSans-83" />
     <path d="M -0.296875 72.90625  L 61.375 72.90625  L 61.375 64.59375  L 35.5 64.59375  L 35.5 0  L 25.59375 0  L 25.59375 64.59375  L -0.296875 64.59375  z " id="DejaVuSans-84" />
     <path d="M 34.1875 63.1875  L 20.796875 26.90625  L 47.609375 26.90625  z M 28.609375 72.90625  L 39.796875 72.90625  L 67.578125 0  L 57.328125 0  L 50.6875 18.703125  L 17.828125 18.703125  L 11.1875 0  L 0.78125 0  z " id="DejaVuSans-65" />
     <path d="M 44.390625 34.1875  Q 47.5625 33.109375 50.5625 29.59375  Q 53.5625 26.078125 56.59375 19.921875  L 66.609375 0  L 56 0  L 46.6875 18.703125  Q 43.0625 26.03125 39.671875 28.421875  Q 36.28125 30.8125 30.421875 30.8125  L 19.671875 30.8125  L 19.671875 0  L 9.8125 0  L 9.8125 72.90625  L 32.078125 72.90625  Q 44.578125 72.90625 50.734375 67.671875  Q 56.890625 62.453125 56.890625 51.90625  Q 56.890625 45.015625 53.6875 40.46875  Q 50.484375 35.9375 44.390625 34.1875  z M 19.671875 64.796875  L 19.671875 38.921875  L 32.078125 38.921875  Q 39.203125 38.921875 42.84375 42.21875  Q 46.484375 45.515625 46.484375 51.90625  Q 46.484375 58.296875 42.84375 61.546875  Q 39.203125 64.796875 32.078125 64.796875  z " id="DejaVuSans-82" />
    </defs>
    <g style="fill:#444443;" transform="translate(28.016326 98.860258)scale(0.09 -0.09)">
     <use xlink:href="#DejaVuSans-83" />
     <use x="63.476562" xlink:href="#DejaVuSans-84" />
     <use x="116.810547" xlink:href="#DejaVuSans-65" />
     <use x="185.21875" xlink:href="#DejaVuSans-82" />
    </g>
   </g>
  </g>
 </g>
</svg></g>

<g class="edge" id="edge13">
<title>node12-&gt;leaf13</title>
<path d="M427.7802,-100.9801C430.1727,-97.3358 433.3862,-92.4409 436.9437,-87.0219" fill="none" stroke="#444443" stroke-width=".3" />
<polygon fill="#444443" points="438.174,-87.6987 439.1989,-83.5866 435.8333,-86.1621 438.174,-87.6987" stroke="#444443" stroke-width=".3" />
</g>

<g class="node" id="node15">
<title>leaf14</title>
<polygon fill="none" points="581.5,-84 513.5,-84 513.5,0 581.5,0 581.5,-84" stroke="#444443" stroke-width="0" />
<svg height="76px" preserveAspectRatio="xMinYMin meet" version="1.1" viewBox="0 0 79.004655 101.131085" width="60px" x="517.5" y="-80">
 <defs>
  <style type="text/css">
*{stroke-linecap:butt;stroke-linejoin:round;}
  </style>
 </defs>
 <g id="figure_1">
  <g id="patch_1">
   <path d="M 0 101.131085  L 79.004655 101.131085  L 79.004655 0  L 0 0  z " style="fill:#ffffff;" />
  </g>
  <g id="axes_1">
   <g id="patch_2">
    <path d="M 79.004655 39.941941  C 79.004655 31.723751 76.424217 23.709383 71.629186 17.03508  C 66.834154 10.360777 60.062375 5.357602 52.273922 2.734885  C 44.485469 0.112167 36.06667 0 28.211107 2.414287  C 20.355544 4.828573 13.452874 9.649558 8.481727 16.193742  L 39.744655 39.941941  L 79.004655 39.941941  z " style="fill:#fefebb;stroke:#444443;stroke-linejoin:miter;stroke-width:0.5;" />
   </g>
   <g id="patch_3">
    <path d="M 8.481727 16.193742  C 4.712813 21.155268 2.1786 26.943458 1.0893 33.078186  C 0 39.212913 0.386589 45.519729 2.216999 51.475487  C 4.04741 57.431245 7.269591 62.866586 11.616266 67.33065  C 15.962941 71.794715 21.310507 75.160562 27.215384 77.148997  C 33.120262 79.137432 39.41454 79.691911 45.576111 78.76644  C 51.737682 77.84097 57.591335 75.461866 62.651511 71.826475  C 67.711688 68.191085 71.834497 63.402783 74.677952 57.858758  C 77.521408 52.314733 79.004653 46.172635 79.004655 39.941949  L 39.744655 39.941941  L 8.481727 16.193742  z " style="fill:#d9e6f5;stroke:#444443;stroke-linejoin:miter;stroke-width:0.5;" />
   </g>
   <g id="patch_4">
    <path d="M 79.004655 39.941949  C 79.004655 39.941949 79.004655 39.941949 79.004655 39.941949  L 39.744655 39.941941  L 79.004655 39.941949  z " style="fill:#a1dab4;stroke:#444443;stroke-linejoin:miter;stroke-width:0.5;" />
   </g>
   <g id="text_1">
    
    <defs>
     <path d="M 54.890625 33.015625  L 54.890625 0  L 45.90625 0  L 45.90625 32.71875  Q 45.90625 40.484375 42.875 44.328125  Q 39.84375 48.1875 33.796875 48.1875  Q 26.515625 48.1875 22.3125 43.546875  Q 18.109375 38.921875 18.109375 30.90625  L 18.109375 0  L 9.078125 0  L 9.078125 54.6875  L 18.109375 54.6875  L 18.109375 46.1875  Q 21.34375 51.125 25.703125 53.5625  Q 30.078125 56 35.796875 56  Q 45.21875 56 50.046875 50.171875  Q 54.890625 44.34375 54.890625 33.015625  z " id="DejaVuSans-110" />
     <path d="M 10.59375 45.40625  L 73.1875 45.40625  L 73.1875 37.203125  L 10.59375 37.203125  z M 10.59375 25.484375  L 73.1875 25.484375  L 73.1875 17.1875  L 10.59375 17.1875  z " id="DejaVuSans-61" />
     <path d="M 12.40625 8.296875  L 28.515625 8.296875  L 28.515625 63.921875  L 10.984375 60.40625  L 10.984375 69.390625  L 28.421875 72.90625  L 38.28125 72.90625  L 38.28125 8.296875  L 54.390625 8.296875  L 54.390625 0  L 12.40625 0  z " id="DejaVuSans-49" />
     <path d="M 33.015625 40.375  Q 26.375 40.375 22.484375 35.828125  Q 18.609375 31.296875 18.609375 23.390625  Q 18.609375 15.53125 22.484375 10.953125  Q 26.375 6.390625 33.015625 6.390625  Q 39.65625 6.390625 43.53125 10.953125  Q 47.40625 15.53125 47.40625 23.390625  Q 47.40625 31.296875 43.53125 35.828125  Q 39.65625 40.375 33.015625 40.375  z M 52.59375 71.296875  L 52.59375 62.3125  Q 48.875 64.0625 45.09375 64.984375  Q 41.3125 65.921875 37.59375 65.921875  Q 27.828125 65.921875 22.671875 59.328125  Q 17.53125 52.734375 16.796875 39.40625  Q 19.671875 43.65625 24.015625 45.921875  Q 28.375 48.1875 33.59375 48.1875  Q 44.578125 48.1875 50.953125 41.515625  Q 57.328125 34.859375 57.328125 23.390625  Q 57.328125 12.15625 50.6875 5.359375  Q 44.046875 -1.421875 33.015625 -1.421875  Q 20.359375 -1.421875 13.671875 8.265625  Q 6.984375 17.96875 6.984375 36.375  Q 6.984375 53.65625 15.1875 63.9375  Q 23.390625 74.21875 37.203125 74.21875  Q 40.921875 74.21875 44.703125 73.484375  Q 48.484375 72.75 52.59375 71.296875  z " id="DejaVuSans-54" />
     <path d="M 40.578125 39.3125  Q 47.65625 37.796875 51.625 33  Q 55.609375 28.21875 55.609375 21.1875  Q 55.609375 10.40625 48.1875 4.484375  Q 40.765625 -1.421875 27.09375 -1.421875  Q 22.515625 -1.421875 17.65625 -0.515625  Q 12.796875 0.390625 7.625 2.203125  L 7.625 11.71875  Q 11.71875 9.328125 16.59375 8.109375  Q 21.484375 6.890625 26.8125 6.890625  Q 36.078125 6.890625 40.9375 10.546875  Q 45.796875 14.203125 45.796875 21.1875  Q 45.796875 27.640625 41.28125 31.265625  Q 36.765625 34.90625 28.71875 34.90625  L 20.21875 34.90625  L 20.21875 43.015625  L 29.109375 43.015625  Q 36.375 43.015625 40.234375 45.921875  Q 44.09375 48.828125 44.09375 54.296875  Q 44.09375 59.90625 40.109375 62.90625  Q 36.140625 65.921875 28.71875 65.921875  Q 24.65625 65.921875 20.015625 65.03125  Q 15.375 64.15625 9.8125 62.3125  L 9.8125 71.09375  Q 15.4375 72.65625 20.34375 73.4375  Q 25.25 74.21875 29.59375 74.21875  Q 40.828125 74.21875 47.359375 69.109375  Q 53.90625 64.015625 53.90625 55.328125  Q 53.90625 49.265625 50.4375 45.09375  Q 46.96875 40.921875 40.578125 39.3125  z " id="DejaVuSans-51" />
    </defs>
    <g style="fill:#444443;" transform="translate(21.66942 89.181335)scale(0.09 -0.09)">
     <use xlink:href="#DejaVuSans-110" />
     <use x="63.378906" xlink:href="#DejaVuSans-61" />
     <use x="147.167969" xlink:href="#DejaVuSans-49" />
     <use x="210.791016" xlink:href="#DejaVuSans-54" />
     <use x="274.414062" xlink:href="#DejaVuSans-51" />
     <use x="338.037109" xlink:href="#DejaVuSans-49" />
    </g>
    
    <defs>
     <path d="M 53.515625 70.515625  L 53.515625 60.890625  Q 47.90625 63.578125 42.921875 64.890625  Q 37.9375 66.21875 33.296875 66.21875  Q 25.25 66.21875 20.875 63.09375  Q 16.5 59.96875 16.5 54.203125  Q 16.5 49.359375 19.40625 46.890625  Q 22.3125 44.4375 30.421875 42.921875  L 36.375 41.703125  Q 47.40625 39.59375 52.65625 34.296875  Q 57.90625 29 57.90625 20.125  Q 57.90625 9.515625 50.796875 4.046875  Q 43.703125 -1.421875 29.984375 -1.421875  Q 24.8125 -1.421875 18.96875 -0.25  Q 13.140625 0.921875 6.890625 3.21875  L 6.890625 13.375  Q 12.890625 10.015625 18.65625 8.296875  Q 24.421875 6.59375 29.984375 6.59375  Q 38.421875 6.59375 43.015625 9.90625  Q 47.609375 13.234375 47.609375 19.390625  Q 47.609375 24.75 44.3125 27.78125  Q 41.015625 30.8125 33.5 32.328125  L 27.484375 33.5  Q 16.453125 35.6875 11.515625 40.375  Q 6.59375 45.0625 6.59375 53.421875  Q 6.59375 63.09375 13.40625 68.65625  Q 20.21875 74.21875 32.171875 74.21875  Q 37.3125 74.21875 42.625 73.28125  Q 47.953125 72.359375 53.515625 70.515625  z " id="DejaVuSans-83" />
     <path d="M -0.296875 72.90625  L 61.375 72.90625  L 61.375 64.59375  L 35.5 64.59375  L 35.5 0  L 25.59375 0  L 25.59375 64.59375  L -0.296875 64.59375  z " id="DejaVuSans-84" />
     <path d="M 34.1875 63.1875  L 20.796875 26.90625  L 47.609375 26.90625  z M 28.609375 72.90625  L 39.796875 72.90625  L 67.578125 0  L 57.328125 0  L 50.6875 18.703125  L 17.828125 18.703125  L 11.1875 0  L 0.78125 0  z " id="DejaVuSans-65" />
     <path d="M 44.390625 34.1875  Q 47.5625 33.109375 50.5625 29.59375  Q 53.5625 26.078125 56.59375 19.921875  L 66.609375 0  L 56 0  L 46.6875 18.703125  Q 43.0625 26.03125 39.671875 28.421875  Q 36.28125 30.8125 30.421875 30.8125  L 19.671875 30.8125  L 19.671875 0  L 9.8125 0  L 9.8125 72.90625  L 32.078125 72.90625  Q 44.578125 72.90625 50.734375 67.671875  Q 56.890625 62.453125 56.890625 51.90625  Q 56.890625 45.015625 53.6875 40.46875  Q 50.484375 35.9375 44.390625 34.1875  z M 19.671875 64.796875  L 19.671875 38.921875  L 32.078125 38.921875  Q 39.203125 38.921875 42.84375 42.21875  Q 46.484375 45.515625 46.484375 51.90625  Q 46.484375 58.296875 42.84375 61.546875  Q 39.203125 64.796875 32.078125 64.796875  z " id="DejaVuSans-82" />
    </defs>
    <g style="fill:#444443;" transform="translate(28.283014 99.259366)scale(0.09 -0.09)">
     <use xlink:href="#DejaVuSans-83" />
     <use x="63.476562" xlink:href="#DejaVuSans-84" />
     <use x="116.810547" xlink:href="#DejaVuSans-65" />
     <use x="185.21875" xlink:href="#DejaVuSans-82" />
    </g>
   </g>
  </g>
 </g>
</svg></g>

<g class="edge" id="edge14">
<title>node12-&gt;leaf14</title>
<path d="M435.8429,-100.9801C452.8919,-91.9744 484.3982,-75.332 509.6068,-62.0162" fill="none" stroke="#444443" stroke-width=".3" />
<polygon fill="#444443" points="510.395,-63.1832 513.2779,-60.077 509.0871,-60.7074 510.395,-63.1832" stroke="#444443" stroke-width=".3" />
</g>

<g class="edge" id="edge16">
<title>node8-&gt;node9</title>
<path d="M326.7219,-130.842C326.8462,-127.1134 327.0041,-122.3764 327.1452,-118.1455" fill="none" stroke="#444443" stroke-width=".3" />
<polygon fill="#444443" points="328.5446,-118.1838 327.2787,-114.1394 325.7461,-118.0905 328.5446,-118.1838" stroke="#444443" stroke-width=".3" />
</g>

<g class="edge" id="edge17">
<title>node8-&gt;node12</title>
<path d="M347.5476,-130.9904C362.4439,-126.3833 382.492,-120.1829 398.2504,-115.3092" fill="none" stroke="#444443" stroke-width=".3" />
<polygon fill="#444443" points="398.7508,-116.6199 402.1586,-114.1004 397.9235,-113.9449 398.7508,-116.6199" stroke="#444443" stroke-width=".3" />
</g>

<g class="node" id="node7">
<title>node0</title>
<text fill="#444443" font-family="Helvetica,sans-Serif" font-size="12.00" text-anchor="start" x="238" y="-199.9">redshift@0.00</text>
</g>

<g class="edge" id="edge19">
<title>node0-&gt;node1</title>
<path d="M271.0207,-196.4801C263.2177,-185.1224 247.0696,-161.618 237.6856,-147.959" fill="none" stroke="#444443" stroke-width=".3" />
<polygon fill="#444443" points="238.6497,-146.89 235.2307,-144.3858 236.3419,-148.4755 238.6497,-146.89" stroke="#444443" stroke-width=".3" />
<text fill="#000000" font-family="Times,serif" font-size="14.00" text-anchor="start" x="250.5" y="-155.8">&#8804;</text>
</g>

<g class="edge" id="edge20">
<title>node0-&gt;node8</title>
<path d="M280.5765,-196.4801C289.4956,-185.0253 308.0346,-161.2153 318.6273,-147.611" fill="none" stroke="#444443" stroke-width=".3" />
<polygon fill="#444443" points="319.7857,-148.4021 321.1385,-144.3858 317.5764,-146.6819 319.7857,-148.4021" stroke="#444443" stroke-width=".3" />
<text fill="#000000" font-family="Times,serif" font-size="14.00" text-anchor="start" x="313.5" y="-155.8">&gt;</text>
</g>





<g class="node" id="node16">
<title>legend</title>
<polygon fill="none" points="384.5,-231 320.5,-231 320.5,-175 384.5,-175 384.5,-231" stroke="#000000" stroke-width="0" />
<svg height="52px" preserveAspectRatio="xMinYMin meet" version="1.1" viewBox="0 0 79.684375 69.7125" width="60px" x="322.5" y="-229">
 <defs>
  <style type="text/css">
*{stroke-linecap:butt;stroke-linejoin:round;}
  </style>
 </defs>
 <g id="figure_1">
  <g id="patch_1">
   <path d="M 0 69.7125  L 79.684375 69.7125  L 79.684375 0  L 0 0  z " style="fill:#ffffff;" />
  </g>
  <g id="axes_1">
   <g id="legend_1">
    <g id="patch_2">
     <path d="M 2 69.7125  L 77.684375 69.7125  Q 79.684375 69.7125 79.684375 67.7125  L 79.684375 2  Q 79.684375 -0 77.684375 -0  L 2 -0  Q 0 -0 0 2  L 0 67.7125  Q 0 69.7125 2 69.7125  z " style="fill:#ffffff;opacity:0.8;stroke:#444443;stroke-linejoin:miter;stroke-width:0.5;" />
    </g>
    <g id="text_1">
     
     <defs>
      <path d="M 52.59375 52.984375  L 52.59375 38.71875  Q 49.03125 41.15625 45.4375 42.328125  Q 41.84375 43.5 37.984375 43.5  Q 30.671875 43.5 26.59375 39.234375  Q 22.515625 34.96875 22.515625 27.296875  Q 22.515625 19.625 26.59375 15.34375  Q 30.671875 11.078125 37.984375 11.078125  Q 42.09375 11.078125 45.78125 12.296875  Q 49.46875 13.53125 52.59375 15.921875  L 52.59375 1.609375  Q 48.484375 0.09375 44.265625 -0.65625  Q 40.046875 -1.421875 35.796875 -1.421875  Q 21 -1.421875 12.640625 6.171875  Q 4.296875 13.765625 4.296875 27.296875  Q 4.296875 40.828125 12.640625 48.40625  Q 21 56 35.796875 56  Q 40.09375 56 44.265625 55.25  Q 48.4375 54.5 52.59375 52.984375  z " id="DejaVuSans-Bold-99" />
      <path d="M 8.40625 75.984375  L 25.875 75.984375  L 25.875 0  L 8.40625 0  z " id="DejaVuSans-Bold-108" />
      <path d="M 32.90625 24.609375  Q 27.4375 24.609375 24.671875 22.75  Q 21.921875 20.90625 21.921875 17.28125  Q 21.921875 13.96875 24.140625 12.078125  Q 26.375 10.203125 30.328125 10.203125  Q 35.25 10.203125 38.625 13.734375  Q 42 17.28125 42 22.609375  L 42 24.609375  z M 59.625 31.203125  L 59.625 0  L 42 0  L 42 8.109375  Q 38.484375 3.125 34.078125 0.84375  Q 29.6875 -1.421875 23.390625 -1.421875  Q 14.890625 -1.421875 9.59375 3.53125  Q 4.296875 8.5 4.296875 16.40625  Q 4.296875 26.03125 10.90625 30.515625  Q 17.53125 35.015625 31.6875 35.015625  L 42 35.015625  L 42 36.375  Q 42 40.53125 38.71875 42.453125  Q 35.453125 44.390625 28.515625 44.390625  Q 22.90625 44.390625 18.0625 43.265625  Q 13.234375 42.140625 9.078125 39.890625  L 9.078125 53.21875  Q 14.703125 54.59375 20.359375 55.296875  Q 26.03125 56 31.6875 56  Q 46.484375 56 53.046875 50.171875  Q 59.625 44.34375 59.625 31.203125  z " id="DejaVuSans-Bold-97" />
      <path d="M 51.125 52.984375  L 51.125 39.703125  Q 45.515625 42.046875 40.28125 43.21875  Q 35.0625 44.390625 30.421875 44.390625  Q 25.4375 44.390625 23.015625 43.140625  Q 20.609375 41.890625 20.609375 39.3125  Q 20.609375 37.203125 22.4375 36.078125  Q 24.265625 34.96875 29 34.421875  L 32.078125 33.984375  Q 45.515625 32.28125 50.140625 28.375  Q 54.78125 24.46875 54.78125 16.109375  Q 54.78125 7.375 48.328125 2.96875  Q 41.890625 -1.421875 29.109375 -1.421875  Q 23.6875 -1.421875 17.890625 -0.5625  Q 12.109375 0.296875 6 2  L 6 15.28125  Q 11.234375 12.75 16.71875 11.46875  Q 22.21875 10.203125 27.875 10.203125  Q 33.015625 10.203125 35.59375 11.609375  Q 38.1875 13.03125 38.1875 15.828125  Q 38.1875 18.171875 36.40625 19.3125  Q 34.625 20.453125 29.296875 21.09375  L 26.21875 21.484375  Q 14.546875 22.953125 9.859375 26.90625  Q 5.171875 30.859375 5.171875 38.921875  Q 5.171875 47.609375 11.125 51.796875  Q 17.09375 56 29.390625 56  Q 34.234375 56 39.546875 55.265625  Q 44.875 54.546875 51.125 52.984375  z " id="DejaVuSans-Bold-115" />
     </defs>
     <g style="fill:#444443;" transform="translate(25.838281 15.598437)scale(0.1 -0.1)">
      <use xlink:href="#DejaVuSans-Bold-99" />
      <use x="59.277344" xlink:href="#DejaVuSans-Bold-108" />
      <use x="93.554688" xlink:href="#DejaVuSans-Bold-97" />
      <use x="161.035156" xlink:href="#DejaVuSans-Bold-115" />
      <use x="220.556641" xlink:href="#DejaVuSans-Bold-115" />
     </g>
    </g>
    <g id="patch_3">
     <path d="M 8 30.276562  L 28 30.276562  L 28 23.276562  L 8 23.276562  z " style="fill:#fefebb;stroke:#444443;stroke-linejoin:miter;stroke-width:0.4;" />
    </g>
    <g id="text_2">
     
     <defs>
      <path d="M 59.515625 10.40625  L 59.515625 29.984375  L 43.40625 29.984375  L 43.40625 38.09375  L 69.28125 38.09375  L 69.28125 6.78125  Q 63.578125 2.734375 56.6875 0.65625  Q 49.8125 -1.421875 42 -1.421875  Q 24.90625 -1.421875 15.25 8.5625  Q 5.609375 18.5625 5.609375 36.375  Q 5.609375 54.25 15.25 64.234375  Q 24.90625 74.21875 42 74.21875  Q 49.125 74.21875 55.546875 72.453125  Q 61.96875 70.703125 67.390625 67.28125  L 67.390625 56.78125  Q 61.921875 61.421875 55.765625 63.765625  Q 49.609375 66.109375 42.828125 66.109375  Q 29.4375 66.109375 22.71875 58.640625  Q 16.015625 51.171875 16.015625 36.375  Q 16.015625 21.625 22.71875 14.15625  Q 29.4375 6.6875 42.828125 6.6875  Q 48.046875 6.6875 52.140625 7.59375  Q 56.25 8.5 59.515625 10.40625  z " id="DejaVuSans-71" />
      <path d="M 34.1875 63.1875  L 20.796875 26.90625  L 47.609375 26.90625  z M 28.609375 72.90625  L 39.796875 72.90625  L 67.578125 0  L 57.328125 0  L 50.6875 18.703125  L 17.828125 18.703125  L 11.1875 0  L 0.78125 0  z " id="DejaVuSans-65" />
      <path d="M 9.8125 72.90625  L 19.671875 72.90625  L 19.671875 8.296875  L 55.171875 8.296875  L 55.171875 0  L 9.8125 0  z " id="DejaVuSans-76" />
      <path d="M 6.296875 72.90625  L 16.890625 72.90625  L 35.015625 45.796875  L 53.21875 72.90625  L 63.8125 72.90625  L 40.375 37.890625  L 65.375 0  L 54.78125 0  L 34.28125 31  L 13.625 0  L 2.984375 0  L 29 38.921875  z " id="DejaVuSans-88" />
      <path d="M -0.203125 72.90625  L 10.40625 72.90625  L 30.609375 42.921875  L 50.6875 72.90625  L 61.28125 72.90625  L 35.5 34.71875  L 35.5 0  L 25.59375 0  L 25.59375 34.71875  z " id="DejaVuSans-89" />
     </defs>
     <g style="fill:#444443;" transform="translate(31.5 30.276562)scale(0.1 -0.1)">
      <use xlink:href="#DejaVuSans-71" />
      <use x="77.490234" xlink:href="#DejaVuSans-65" />
      <use x="145.898438" xlink:href="#DejaVuSans-76" />
      <use x="203.861328" xlink:href="#DejaVuSans-65" />
      <use x="272.269531" xlink:href="#DejaVuSans-88" />
      <use x="340.775391" xlink:href="#DejaVuSans-89" />
     </g>
    </g>
    <g id="patch_4">
     <path d="M 8 44.954687  L 28 44.954687  L 28 37.954687  L 8 37.954687  z " style="fill:#d9e6f5;stroke:#444443;stroke-linejoin:miter;stroke-width:0.4;" />
    </g>
    <g id="text_3">
     
     <defs>
      <path d="M 53.515625 70.515625  L 53.515625 60.890625  Q 47.90625 63.578125 42.921875 64.890625  Q 37.9375 66.21875 33.296875 66.21875  Q 25.25 66.21875 20.875 63.09375  Q 16.5 59.96875 16.5 54.203125  Q 16.5 49.359375 19.40625 46.890625  Q 22.3125 44.4375 30.421875 42.921875  L 36.375 41.703125  Q 47.40625 39.59375 52.65625 34.296875  Q 57.90625 29 57.90625 20.125  Q 57.90625 9.515625 50.796875 4.046875  Q 43.703125 -1.421875 29.984375 -1.421875  Q 24.8125 -1.421875 18.96875 -0.25  Q 13.140625 0.921875 6.890625 3.21875  L 6.890625 13.375  Q 12.890625 10.015625 18.65625 8.296875  Q 24.421875 6.59375 29.984375 6.59375  Q 38.421875 6.59375 43.015625 9.90625  Q 47.609375 13.234375 47.609375 19.390625  Q 47.609375 24.75 44.3125 27.78125  Q 41.015625 30.8125 33.5 32.328125  L 27.484375 33.5  Q 16.453125 35.6875 11.515625 40.375  Q 6.59375 45.0625 6.59375 53.421875  Q 6.59375 63.09375 13.40625 68.65625  Q 20.21875 74.21875 32.171875 74.21875  Q 37.3125 74.21875 42.625 73.28125  Q 47.953125 72.359375 53.515625 70.515625  z " id="DejaVuSans-83" />
      <path d="M -0.296875 72.90625  L 61.375 72.90625  L 61.375 64.59375  L 35.5 64.59375  L 35.5 0  L 25.59375 0  L 25.59375 64.59375  L -0.296875 64.59375  z " id="DejaVuSans-84" />
      <path d="M 44.390625 34.1875  Q 47.5625 33.109375 50.5625 29.59375  Q 53.5625 26.078125 56.59375 19.921875  L 66.609375 0  L 56 0  L 46.6875 18.703125  Q 43.0625 26.03125 39.671875 28.421875  Q 36.28125 30.8125 30.421875 30.8125  L 19.671875 30.8125  L 19.671875 0  L 9.8125 0  L 9.8125 72.90625  L 32.078125 72.90625  Q 44.578125 72.90625 50.734375 67.671875  Q 56.890625 62.453125 56.890625 51.90625  Q 56.890625 45.015625 53.6875 40.46875  Q 50.484375 35.9375 44.390625 34.1875  z M 19.671875 64.796875  L 19.671875 38.921875  L 32.078125 38.921875  Q 39.203125 38.921875 42.84375 42.21875  Q 46.484375 45.515625 46.484375 51.90625  Q 46.484375 58.296875 42.84375 61.546875  Q 39.203125 64.796875 32.078125 64.796875  z " id="DejaVuSans-82" />
     </defs>
     <g style="fill:#444443;" transform="translate(31.5 44.954687)scale(0.1 -0.1)">
      <use xlink:href="#DejaVuSans-83" />
      <use x="63.476562" xlink:href="#DejaVuSans-84" />
      <use x="116.810547" xlink:href="#DejaVuSans-65" />
      <use x="185.21875" xlink:href="#DejaVuSans-82" />
     </g>
    </g>
    <g id="patch_5">
     <path d="M 8 59.632812  L 28 59.632812  L 28 52.632812  L 8 52.632812  z " style="fill:#a1dab4;stroke:#444443;stroke-linejoin:miter;stroke-width:0.4;" />
    </g>
    <g id="text_4">
     
     <defs>
      <path d="M 39.40625 66.21875  Q 28.65625 66.21875 22.328125 58.203125  Q 16.015625 50.203125 16.015625 36.375  Q 16.015625 22.609375 22.328125 14.59375  Q 28.65625 6.59375 39.40625 6.59375  Q 50.140625 6.59375 56.421875 14.59375  Q 62.703125 22.609375 62.703125 36.375  Q 62.703125 50.203125 56.421875 58.203125  Q 50.140625 66.21875 39.40625 66.21875  z M 53.21875 1.3125  L 66.21875 -12.890625  L 54.296875 -12.890625  L 43.5 -1.21875  Q 41.890625 -1.3125 41.03125 -1.359375  Q 40.1875 -1.421875 39.40625 -1.421875  Q 24.03125 -1.421875 14.8125 8.859375  Q 5.609375 19.140625 5.609375 36.375  Q 5.609375 53.65625 14.8125 63.9375  Q 24.03125 74.21875 39.40625 74.21875  Q 54.734375 74.21875 63.90625 63.9375  Q 73.09375 53.65625 73.09375 36.375  Q 73.09375 23.6875 67.984375 14.640625  Q 62.890625 5.609375 53.21875 1.3125  z " id="DejaVuSans-81" />
      <path d="M 39.40625 66.21875  Q 28.65625 66.21875 22.328125 58.203125  Q 16.015625 50.203125 16.015625 36.375  Q 16.015625 22.609375 22.328125 14.59375  Q 28.65625 6.59375 39.40625 6.59375  Q 50.140625 6.59375 56.421875 14.59375  Q 62.703125 22.609375 62.703125 36.375  Q 62.703125 50.203125 56.421875 58.203125  Q 50.140625 66.21875 39.40625 66.21875  z M 39.40625 74.21875  Q 54.734375 74.21875 63.90625 63.9375  Q 73.09375 53.65625 73.09375 36.375  Q 73.09375 19.140625 63.90625 8.859375  Q 54.734375 -1.421875 39.40625 -1.421875  Q 24.03125 -1.421875 14.8125 8.828125  Q 5.609375 19.09375 5.609375 36.375  Q 5.609375 53.65625 14.8125 63.9375  Q 24.03125 74.21875 39.40625 74.21875  z " id="DejaVuSans-79" />
     </defs>
     <g style="fill:#444443;" transform="translate(31.5 59.632812)scale(0.1 -0.1)">
      <use xlink:href="#DejaVuSans-81" />
      <use x="78.710938" xlink:href="#DejaVuSans-83" />
      <use x="142.1875" xlink:href="#DejaVuSans-79" />
     </g>
    </g>
   </g>
  </g>
 </g>
</svg></g>
</g>
</svg>